# node obj {x=0, y=0, z=0}
o node_0_0_0

v 0.375 0.5 -0.5
v 0.375 0.5 -0.375
v 0.5 0.5 -0.375
v 0.5 0.5 -0.5
v -0.5 0.5 -0.5
v -0.5 0.5 -0.375
v -0.375 0.5 -0.375
v -0.375 0.5 -0.5
v 0.125 -0.0625 -0.4375
v 0.125 -0.0625 -0.375
v 0.375 -0.0625 -0.375
v 0.375 -0.0625 -0.4375
v -0.0625 -0.0625 -0.4375
v -0.0625 -0.0625 -0.375
v 0.0625 -0.0625 -0.375
v 0.0625 -0.0625 -0.4375
v -0.375 -0.0625 -0.4375
v -0.375 -0.0625 -0.375
v -0.125 -0.0625 -0.375
v -0.125 -0.0625 -0.4375
v -0.375 0.125 -0.4375
v -0.375 0.125 -0.375
v 0.375 0.125 -0.375
v 0.375 0.125 -0.4375
v 0.375 0.125 0.375
v 0.4375 0.125 0.375
v 0.4375 0.125 -0.375
v -0.4375 0.125 -0.375
v -0.4375 0.125 0.375
v -0.375 0.125 0.375
v 0.375 -0.0625 -0.3125
v 0.375 -0.0625 -0.125
v 0.4375 -0.0625 -0.125
v 0.4375 -0.0625 -0.3125
v -0.4375 -0.0625 -0.3125
v -0.4375 -0.0625 -0.125
v -0.375 -0.0625 -0.125
v -0.375 -0.0625 -0.3125
v 0.375 -0.0625 -0.0625
v 0.375 -0.0625 0.0625
v 0.4375 -0.0625 0.0625
v 0.4375 -0.0625 -0.0625
v -0.4375 -0.0625 -0.0625
v -0.4375 -0.0625 0.0625
v -0.375 -0.0625 0.0625
v -0.375 -0.0625 -0.0625
v 0.375 -0.0625 0.125
v 0.375 -0.0625 0.3125
v 0.4375 -0.0625 0.3125
v 0.4375 -0.0625 0.125
v -0.4375 -0.0625 0.125
v -0.4375 -0.0625 0.3125
v -0.375 -0.0625 0.3125
v -0.375 -0.0625 0.125
v 0.125 -0.0625 0.375
v 0.125 -0.0625 0.4375
v 0.3125 -0.0625 0.4375
v 0.3125 -0.0625 0.375
v -0.0625 -0.0625 0.375
v -0.0625 -0.0625 0.4375
v 0.0625 -0.0625 0.4375
v 0.0625 -0.0625 0.375
v -0.3125 -0.0625 0.375
v -0.3125 -0.0625 0.4375
v -0.125 -0.0625 0.4375
v -0.125 -0.0625 0.375
v -0.375 0.125 0.4375
v 0.375 0.125 0.4375
v 0.375 0.5 0.375
v 0.375 0.5 0.5
v 0.5 0.5 0.5
v 0.5 0.5 0.375
v -0.5 0.5 0.375
v -0.5 0.5 0.5
v -0.375 0.5 0.5
v -0.375 0.5 0.375
v 0.375 -0.5 -0.5
v 0.375 -0.5 -0.375
v 0.5 -0.5 -0.375
v 0.5 -0.5 -0.5
v -0.5 -0.5 -0.5
v -0.5 -0.5 -0.375
v -0.375 -0.5 -0.375
v -0.375 -0.5 -0.5
v -0.375 -0.125 -0.4375
v -0.375 -0.125 -0.375
v 0.375 -0.125 -0.375
v 0.375 -0.125 -0.4375
v 0.125 0.0625 -0.4375
v 0.125 0.0625 -0.375
v 0.375 0.0625 -0.375
v 0.375 0.0625 -0.4375
v -0.0625 0.0625 -0.4375
v -0.0625 0.0625 -0.375
v 0.0625 0.0625 -0.375
v 0.0625 0.0625 -0.4375
v -0.375 0.0625 -0.4375
v -0.375 0.0625 -0.375
v -0.125 0.0625 -0.375
v -0.125 0.0625 -0.4375
v 0.375 -0.125 0.375
v 0.4375 -0.125 0.375
v 0.4375 -0.125 -0.375
v -0.4375 -0.125 -0.375
v -0.4375 -0.125 0.375
v -0.375 -0.125 0.375
v 0.375 0.0625 -0.3125
v 0.375 0.0625 -0.125
v 0.4375 0.0625 -0.125
v 0.4375 0.0625 -0.3125
v -0.4375 0.0625 -0.3125
v -0.4375 0.0625 -0.125
v -0.375 0.0625 -0.125
v -0.375 0.0625 -0.3125
v 0.375 0.0625 -0.0625
v 0.375 0.0625 0.0625
v 0.4375 0.0625 0.0625
v 0.4375 0.0625 -0.0625
v -0.4375 0.0625 -0.0625
v -0.4375 0.0625 0.0625
v -0.375 0.0625 0.0625
v -0.375 0.0625 -0.0625
v 0.375 0.0625 0.125
v 0.375 0.0625 0.3125
v 0.4375 0.0625 0.3125
v 0.4375 0.0625 0.125
v -0.4375 0.0625 0.125
v -0.4375 0.0625 0.3125
v -0.375 0.0625 0.3125
v -0.375 0.0625 0.125
v 0.375 -0.5 0.375
v 0.375 -0.5 0.5
v 0.5 -0.5 0.5
v 0.5 -0.5 0.375
v -0.5 -0.5 0.375
v -0.5 -0.5 0.5
v -0.375 -0.5 0.5
v -0.375 -0.5 0.375
v -0.375 -0.125 0.4375
v 0.375 -0.125 0.4375
v 0.125 0.0625 0.375
v 0.125 0.0625 0.4375
v 0.3125 0.0625 0.4375
v 0.3125 0.0625 0.375
v -0.0625 0.0625 0.375
v -0.0625 0.0625 0.4375
v 0.0625 0.0625 0.4375
v 0.0625 0.0625 0.375
v -0.3125 0.0625 0.375
v -0.3125 0.0625 0.4375
v -0.125 0.0625 0.4375
v -0.125 0.0625 0.375
v 0.375 -0.5 -0.4375
v 0.375 0.5 -0.4375
v 0.375 -0.0625 0.375
v -0.4375 -0.125 -0.3125
v -0.4375 0.125 -0.3125
v 0.375 0.0625 0.375
v -0.4375 -0.0625 0.375
v -0.4375 0.0625 0.375
v 0.375 -0.125 0.5
v 0.375 0.125 0.5
v -0.375 -0.5 -0.4375
v -0.375 0.5 -0.4375
v 0.4375 -0.125 -0.3125
v 0.4375 0.125 -0.3125
v -0.375 -0.0625 0.375
v -0.375 0.0625 0.375
v 0.4375 -0.0625 0.375
v 0.4375 0.0625 0.375
v -0.375 -0.125 0.5
v -0.375 0.125 0.5
v 0.0625 0.125 -0.4375
v 0.125 0.125 -0.4375
v -0.125 0.125 -0.4375
v -0.0625 0.125 -0.4375
v 0.5 -0.125 0.375
v -0.5 -0.125 0.375
v 0.4375 0.5 0.375
v -0.4375 0.5 0.375
v 0.3125 0.125 0.375
v 0.0625 0.125 0.375
v 0.125 0.125 0.375
v -0.125 0.125 0.375
v -0.0625 0.125 0.375
v -0.3125 0.125 0.375
v 0.5 -0.125 -0.375
v -0.5 -0.125 -0.375
v 0.4375 0.5 -0.375
v -0.4375 0.5 -0.375
v 0.0625 0.125 -0.375
v 0.125 0.125 -0.375
v -0.125 0.125 -0.375
v -0.0625 0.125 -0.375
v -0.375 -0.0625 0.4375
v 0.375 -0.0625 0.4375
v 0.3125 0.125 0.4375
v 0.0625 0.125 0.4375
v 0.125 0.125 0.4375
v -0.125 0.125 0.4375
v -0.0625 0.125 0.4375
v -0.3125 0.125 0.4375

vt 0.875 0.0
vt 0.875 0.125
vt 1.0 0.125
vt 1.0 0.0
vt 0.0 0.0
vt 0.0 0.125
vt 0.125 0.125
vt 0.125 0.0
vt 0.625 0.0625
vt 0.625 0.125
vt 0.875 0.125
vt 0.875 0.0625
vt 0.4375 0.0625
vt 0.4375 0.125
vt 0.5625 0.125
vt 0.5625 0.0625
vt 0.125 0.0625
vt 0.125 0.125
vt 0.375 0.125
vt 0.375 0.0625
vt 0.125 0.0625
vt 0.125 0.125
vt 0.875 0.125
vt 0.875 0.0625
vt 0.875 0.125
vt 0.875 0.875
vt 0.9375 0.875
vt 0.9375 0.125
vt 0.0625 0.125
vt 0.0625 0.875
vt 0.125 0.875
vt 0.125 0.125
vt 0.875 0.1875
vt 0.875 0.375
vt 0.9375 0.375
vt 0.9375 0.1875
vt 0.0625 0.1875
vt 0.0625 0.375
vt 0.125 0.375
vt 0.125 0.1875
vt 0.875 0.4375
vt 0.875 0.5625
vt 0.9375 0.5625
vt 0.9375 0.4375
vt 0.0625 0.4375
vt 0.0625 0.5625
vt 0.125 0.5625
vt 0.125 0.4375
vt 0.875 0.625
vt 0.875 0.8125
vt 0.9375 0.8125
vt 0.9375 0.625
vt 0.0625 0.625
vt 0.0625 0.8125
vt 0.125 0.8125
vt 0.125 0.625
vt 0.625 0.875
vt 0.625 0.9375
vt 0.8125 0.9375
vt 0.8125 0.875
vt 0.4375 0.875
vt 0.4375 0.9375
vt 0.5625 0.9375
vt 0.5625 0.875
vt 0.1875 0.875
vt 0.1875 0.9375
vt 0.375 0.9375
vt 0.375 0.875
vt 0.125 0.875
vt 0.125 0.9375
vt 0.875 0.9375
vt 0.875 0.875
vt 0.875 0.875
vt 0.875 1.0
vt 1.0 1.0
vt 1.0 0.875
vt 0.0 0.875
vt 0.0 1.0
vt 0.125 1.0
vt 0.125 0.875
vt 0.875 0.0
vt 0.875 0.125
vt 1.0 0.125
vt 1.0 0.0
vt 0.0 0.0
vt 0.0 0.125
vt 0.125 0.125
vt 0.125 0.0
vt 0.125 0.0625
vt 0.125 0.125
vt 0.875 0.125
vt 0.875 0.0625
vt 0.625 0.0625
vt 0.625 0.125
vt 0.875 0.125
vt 0.875 0.0625
vt 0.4375 0.0625
vt 0.4375 0.125
vt 0.5625 0.125
vt 0.5625 0.0625
vt 0.125 0.0625
vt 0.125 0.125
vt 0.375 0.125
vt 0.375 0.0625
vt 0.875 0.125
vt 0.875 0.875
vt 0.9375 0.875
vt 0.9375 0.125
vt 0.0625 0.125
vt 0.0625 0.875
vt 0.125 0.875
vt 0.125 0.125
vt 0.875 0.1875
vt 0.875 0.375
vt 0.9375 0.375
vt 0.9375 0.1875
vt 0.0625 0.1875
vt 0.0625 0.375
vt 0.125 0.375
vt 0.125 0.1875
vt 0.875 0.4375
vt 0.875 0.5625
vt 0.9375 0.5625
vt 0.9375 0.4375
vt 0.0625 0.4375
vt 0.0625 0.5625
vt 0.125 0.5625
vt 0.125 0.4375
vt 0.875 0.625
vt 0.875 0.8125
vt 0.9375 0.8125
vt 0.9375 0.625
vt 0.0625 0.625
vt 0.0625 0.8125
vt 0.125 0.8125
vt 0.125 0.625
vt 0.875 0.875
vt 0.875 1.0
vt 1.0 1.0
vt 1.0 0.875
vt 0.0 0.875
vt 0.0 1.0
vt 0.125 1.0
vt 0.125 0.875
vt 0.125 0.875
vt 0.125 0.9375
vt 0.875 0.9375
vt 0.875 0.875
vt 0.625 0.875
vt 0.625 0.9375
vt 0.8125 0.9375
vt 0.8125 0.875
vt 0.4375 0.875
vt 0.4375 0.9375
vt 0.5625 0.9375
vt 0.5625 0.875
vt 0.1875 0.875
vt 0.1875 0.9375
vt 0.375 0.9375
vt 0.375 0.875
vt 0.0 0.0
vt 0.0 0.0625
vt 1.0 0.0625
vt 1.0 0.0
vt 0.0 0.0
vt 0.0 0.125
vt 1.0 0.125
vt 1.0 0.0
vt 0.0 0.0625
vt 0.0 0.125
vt 0.375 0.125
vt 0.375 0.0625
vt 0.4375 0.0625
vt 0.4375 0.1875
vt 0.5625 0.1875
vt 0.5625 0.0625
vt 0.4375 0.0625
vt 0.4375 0.125
vt 0.5625 0.125
vt 0.5625 0.0625
vt 0.4375 0.0625
vt 0.4375 0.125
vt 0.5625 0.125
vt 0.5625 0.0625
vt 0.625 0.0625
vt 0.625 0.125
vt 1.0 0.125
vt 1.0 0.0625
vt 0.375 0.125
vt 0.375 0.875
vt 0.4375 0.875
vt 0.4375 0.125
vt 0.375 0.125
vt 0.375 0.1875
vt 0.625 0.1875
vt 0.625 0.125
vt 0.5625 0.125
vt 0.5625 0.875
vt 0.625 0.875
vt 0.625 0.125
vt 0.375 0.1875
vt 0.375 0.875
vt 0.4375 0.875
vt 0.4375 0.1875
vt 0.5625 0.1875
vt 0.5625 0.875
vt 0.625 0.875
vt 0.625 0.1875
vt 0.4375 0.375
vt 0.4375 0.4375
vt 0.5625 0.4375
vt 0.5625 0.375
vt 0.4375 0.375
vt 0.4375 0.4375
vt 0.5625 0.4375
vt 0.5625 0.375
vt 0.4375 0.5625
vt 0.4375 0.625
vt 0.5625 0.625
vt 0.5625 0.5625
vt 0.4375 0.5625
vt 0.4375 0.625
vt 0.5625 0.625
vt 0.5625 0.5625
vt 0.4375 0.8125
vt 0.4375 0.875
vt 0.5625 0.875
vt 0.5625 0.8125
vt 0.4375 0.8125
vt 0.4375 0.875
vt 0.5625 0.875
vt 0.5625 0.8125
vt 0.0 0.875
vt 0.0 1.0
vt 0.375 1.0
vt 0.375 0.875
vt 0.0 0.875
vt 0.0 1.0
vt 1.0 1.0
vt 1.0 0.875
vt 0.4375 0.875
vt 0.4375 0.9375
vt 0.5625 0.9375
vt 0.5625 0.875
vt 0.4375 0.875
vt 0.4375 0.9375
vt 0.5625 0.9375
vt 0.5625 0.875
vt 0.4375 0.875
vt 0.4375 0.9375
vt 0.5625 0.9375
vt 0.5625 0.875
vt 0.625 0.875
vt 0.625 1.0
vt 1.0 1.0
vt 1.0 0.875
vt 0.375 0.9375
vt 0.375 1.0
vt 0.625 1.0
vt 0.625 0.9375
vt 0.0 0.0
vt 0.0 0.125
vt 1.0 0.125
vt 1.0 0.0
vt 0.0 0.0
vt 0.0 0.0625
vt 1.0 0.0625
vt 1.0 0.0
vt 0.0 0.0625
vt 0.0 0.125
vt 0.375 0.125
vt 0.375 0.0625
vt 0.4375 0.0625
vt 0.4375 0.125
vt 0.5625 0.125
vt 0.5625 0.0625
vt 0.4375 0.0625
vt 0.4375 0.125
vt 0.5625 0.125
vt 0.5625 0.0625
vt 0.4375 0.0625
vt 0.4375 0.1875
vt 0.5625 0.1875
vt 0.5625 0.0625
vt 0.625 0.0625
vt 0.625 0.125
vt 1.0 0.125
vt 1.0 0.0625
vt 0.375 0.125
vt 0.375 0.1875
vt 0.625 0.1875
vt 0.625 0.125
vt 0.375 0.125
vt 0.375 0.875
vt 0.4375 0.875
vt 0.4375 0.125
vt 0.5625 0.125
vt 0.5625 0.875
vt 0.625 0.875
vt 0.625 0.125
vt 0.375 0.1875
vt 0.375 0.875
vt 0.4375 0.875
vt 0.4375 0.1875
vt 0.5625 0.1875
vt 0.5625 0.875
vt 0.625 0.875
vt 0.625 0.1875
vt 0.4375 0.375
vt 0.4375 0.4375
vt 0.5625 0.4375
vt 0.5625 0.375
vt 0.4375 0.375
vt 0.4375 0.4375
vt 0.5625 0.4375
vt 0.5625 0.375
vt 0.4375 0.5625
vt 0.4375 0.625
vt 0.5625 0.625
vt 0.5625 0.5625
vt 0.4375 0.5625
vt 0.4375 0.625
vt 0.5625 0.625
vt 0.5625 0.5625
vt 0.4375 0.8125
vt 0.4375 0.875
vt 0.5625 0.875
vt 0.5625 0.8125
vt 0.4375 0.8125
vt 0.4375 0.875
vt 0.5625 0.875
vt 0.5625 0.8125
vt 0.0 0.875
vt 0.0 1.0
vt 1.0 1.0
vt 1.0 0.875
vt 0.0 0.875
vt 0.0 1.0
vt 0.375 1.0
vt 0.375 0.875
vt 0.4375 0.875
vt 0.4375 0.9375
vt 0.5625 0.9375
vt 0.5625 0.875
vt 0.4375 0.875
vt 0.4375 0.9375
vt 0.5625 0.9375
vt 0.5625 0.875
vt 0.4375 0.875
vt 0.4375 0.9375
vt 0.5625 0.9375
vt 0.5625 0.875
vt 0.625 0.875
vt 0.625 1.0
vt 1.0 1.0
vt 1.0 0.875
vt 0.375 0.9375
vt 0.375 1.0
vt 0.625 1.0
vt 0.625 0.9375
vt 0.875 0.0
vt 0.875 1.0
vt 1.0 1.0
vt 1.0 0.0
vt 0.0 0.0
vt 0.0 1.0
vt 0.125 1.0
vt 0.125 0.0
vt 0.125 0.375
vt 0.125 0.4375
vt 0.875 0.4375
vt 0.875 0.375
vt 0.5625 0.4375
vt 0.5625 0.625
vt 0.625 0.625
vt 0.625 0.4375
vt 0.375 0.4375
vt 0.375 0.625
vt 0.4375 0.625
vt 0.4375 0.4375
vt 0.625 0.5625
vt 0.625 0.625
vt 0.875 0.625
vt 0.875 0.5625
vt 0.4375 0.5625
vt 0.4375 0.625
vt 0.5625 0.625
vt 0.5625 0.5625
vt 0.125 0.5625
vt 0.125 0.625
vt 0.375 0.625
vt 0.375 0.5625
vt 0.875 0.4375
vt 0.875 0.5625
vt 0.9375 0.5625
vt 0.9375 0.4375
vt 0.0625 0.4375
vt 0.0625 0.5625
vt 0.125 0.5625
vt 0.125 0.4375
vt 0.875 0.4375
vt 0.875 0.5625
vt 0.9375 0.5625
vt 0.9375 0.4375
vt 0.0625 0.4375
vt 0.0625 0.5625
vt 0.125 0.5625
vt 0.125 0.4375
vt 0.875 0.4375
vt 0.875 0.5625
vt 0.9375 0.5625
vt 0.9375 0.4375
vt 0.0625 0.4375
vt 0.0625 0.5625
vt 0.125 0.5625
vt 0.125 0.4375
vt 0.875 0.0
vt 0.875 0.375
vt 1.0 0.375
vt 1.0 0.0
vt 0.0 0.0
vt 0.0 0.375
vt 0.125 0.375
vt 0.125 0.0
vt 0.9375 0.375
vt 0.9375 1.0
vt 1.0 1.0
vt 1.0 0.375
vt 0.125 0.375
vt 0.125 0.4375
vt 0.875 0.4375
vt 0.875 0.375
vt 0.0 0.375
vt 0.0 1.0
vt 0.0625 1.0
vt 0.0625 0.375
vt 0.8125 0.4375
vt 0.8125 0.625
vt 0.875 0.625
vt 0.875 0.4375
vt 0.5625 0.4375
vt 0.5625 0.625
vt 0.625 0.625
vt 0.625 0.4375
vt 0.375 0.4375
vt 0.375 0.625
vt 0.4375 0.625
vt 0.4375 0.4375
vt 0.125 0.4375
vt 0.125 0.625
vt 0.1875 0.625
vt 0.1875 0.4375
vt 0.625 0.5625
vt 0.625 0.625
vt 0.8125 0.625
vt 0.8125 0.5625
vt 0.4375 0.5625
vt 0.4375 0.625
vt 0.5625 0.625
vt 0.5625 0.5625
vt 0.1875 0.5625
vt 0.1875 0.625
vt 0.375 0.625
vt 0.375 0.5625
vt 0.875 0.625
vt 0.875 1.0
vt 0.9375 1.0
vt 0.9375 0.625
vt 0.0625 0.625
vt 0.0625 1.0
vt 0.125 1.0
vt 0.125 0.625
vt 0.875 0.0
vt 0.875 0.375
vt 1.0 0.375
vt 1.0 0.0
vt 0.0 0.0
vt 0.0 0.375
vt 0.125 0.375
vt 0.125 0.0
vt 0.9375 0.375
vt 0.9375 1.0
vt 1.0 1.0
vt 1.0 0.375
vt 0.125 0.375
vt 0.125 0.4375
vt 0.875 0.4375
vt 0.875 0.375
vt 0.0 0.375
vt 0.0 1.0
vt 0.0625 1.0
vt 0.0625 0.375
vt 0.5625 0.4375
vt 0.5625 0.625
vt 0.625 0.625
vt 0.625 0.4375
vt 0.375 0.4375
vt 0.375 0.625
vt 0.4375 0.625
vt 0.4375 0.4375
vt 0.625 0.5625
vt 0.625 0.625
vt 0.875 0.625
vt 0.875 0.5625
vt 0.4375 0.5625
vt 0.4375 0.625
vt 0.5625 0.625
vt 0.5625 0.5625
vt 0.125 0.5625
vt 0.125 0.625
vt 0.375 0.625
vt 0.375 0.5625
vt 0.875 0.625
vt 0.875 1.0
vt 0.9375 1.0
vt 0.9375 0.625
vt 0.0625 0.625
vt 0.0625 1.0
vt 0.125 1.0
vt 0.125 0.625
vt 0.875 0.4375
vt 0.875 0.5625
vt 0.9375 0.5625
vt 0.9375 0.4375
vt 0.0625 0.4375
vt 0.0625 0.5625
vt 0.125 0.5625
vt 0.125 0.4375
vt 0.875 0.4375
vt 0.875 0.5625
vt 0.9375 0.5625
vt 0.9375 0.4375
vt 0.0625 0.4375
vt 0.0625 0.5625
vt 0.125 0.5625
vt 0.125 0.4375
vt 0.875 0.4375
vt 0.875 0.5625
vt 0.9375 0.5625
vt 0.9375 0.4375
vt 0.0625 0.4375
vt 0.0625 0.5625
vt 0.125 0.5625
vt 0.125 0.4375
vt 0.125 0.375
vt 0.125 0.4375
vt 0.875 0.4375
vt 0.875 0.375
vt 0.8125 0.4375
vt 0.8125 0.625
vt 0.875 0.625
vt 0.875 0.4375
vt 0.5625 0.4375
vt 0.5625 0.625
vt 0.625 0.625
vt 0.625 0.4375
vt 0.375 0.4375
vt 0.375 0.625
vt 0.4375 0.625
vt 0.4375 0.4375
vt 0.125 0.4375
vt 0.125 0.625
vt 0.1875 0.625
vt 0.1875 0.4375
vt 0.625 0.5625
vt 0.625 0.625
vt 0.8125 0.625
vt 0.8125 0.5625
vt 0.4375 0.5625
vt 0.4375 0.625
vt 0.5625 0.625
vt 0.5625 0.5625
vt 0.1875 0.5625
vt 0.1875 0.625
vt 0.375 0.625
vt 0.375 0.5625
vt 0.875 0.0
vt 0.875 1.0
vt 1.0 1.0
vt 1.0 0.0
vt 0.0 0.0
vt 0.0 1.0
vt 0.125 1.0
vt 0.125 0.0

vn 0 1 0
vn 0 -1 0
vn -1 0 0
vn 1 0 0
vn 0 0 -1
vn 0 0 1

g node_0_0_0
usemtl wool:grey
s 1
f 1/1/1 2/2/1 3/3/1 4/4/1
usemtl wool:grey
s 2
f 5/5/1 6/6/1 7/7/1 8/8/1
usemtl wool:grey
s 3
f 9/9/1 10/10/1 11/11/1 12/12/1
usemtl wool:grey
s 4
f 13/13/1 14/14/1 15/15/1 16/16/1
usemtl wool:grey
s 5
f 17/17/1 18/18/1 19/19/1 20/20/1
usemtl wool:grey
s 6
f 21/21/1 22/22/1 23/23/1 24/24/1
usemtl wool:grey
s 7
f 23/25/1 25/26/1 26/27/1 27/28/1
usemtl wool:grey
s 8
f 28/29/1 29/30/1 30/31/1 22/32/1
usemtl wool:grey
s 9
f 31/33/1 32/34/1 33/35/1 34/36/1
usemtl wool:grey
s 10
f 35/37/1 36/38/1 37/39/1 38/40/1
usemtl wool:grey
s 11
f 39/41/1 40/42/1 41/43/1 42/44/1
usemtl wool:grey
s 12
f 43/45/1 44/46/1 45/47/1 46/48/1
usemtl wool:grey
s 13
f 47/49/1 48/50/1 49/51/1 50/52/1
usemtl wool:grey
s 14
f 51/53/1 52/54/1 53/55/1 54/56/1
usemtl wool:grey
s 15
f 55/57/1 56/58/1 57/59/1 58/60/1
usemtl wool:grey
s 16
f 59/61/1 60/62/1 61/63/1 62/64/1
usemtl wool:grey
s 17
f 63/65/1 64/66/1 65/67/1 66/68/1
usemtl wool:grey
s 18
f 30/69/1 67/70/1 68/71/1 25/72/1
usemtl wool:grey
s 19
f 69/73/1 70/74/1 71/75/1 72/76/1
usemtl wool:grey
s 20
f 73/77/1 74/78/1 75/79/1 76/80/1
usemtl wool:grey
s 21
f 80/84/2 79/83/2 78/82/2 77/81/2
usemtl wool:grey
s 22
f 84/88/2 83/87/2 82/86/2 81/85/2
usemtl wool:grey
s 23
f 88/92/2 87/91/2 86/90/2 85/89/2
usemtl wool:grey
s 24
f 92/96/2 91/95/2 90/94/2 89/93/2
usemtl wool:grey
s 25
f 96/100/2 95/99/2 94/98/2 93/97/2
usemtl wool:grey
s 26
f 100/104/2 99/103/2 98/102/2 97/101/2
usemtl wool:grey
s 27
f 103/108/2 102/107/2 101/106/2 87/105/2
usemtl wool:grey
s 28
f 86/112/2 106/111/2 105/110/2 104/109/2
usemtl wool:grey
s 29
f 110/116/2 109/115/2 108/114/2 107/113/2
usemtl wool:grey
s 30
f 114/120/2 113/119/2 112/118/2 111/117/2
usemtl wool:grey
s 31
f 118/124/2 117/123/2 116/122/2 115/121/2
usemtl wool:grey
s 32
f 122/128/2 121/127/2 120/126/2 119/125/2
usemtl wool:grey
s 33
f 126/132/2 125/131/2 124/130/2 123/129/2
usemtl wool:grey
s 34
f 130/136/2 129/135/2 128/134/2 127/133/2
usemtl wool:grey
s 35
f 134/140/2 133/139/2 132/138/2 131/137/2
usemtl wool:grey
s 36
f 138/144/2 137/143/2 136/142/2 135/141/2
usemtl wool:grey
s 37
f 101/148/2 140/147/2 139/146/2 106/145/2
usemtl wool:grey
s 38
f 144/152/2 143/151/2 142/150/2 141/149/2
usemtl wool:grey
s 39
f 148/156/2 147/155/2 146/154/2 145/153/2
usemtl wool:grey
s 40
f 152/160/2 151/159/2 150/158/2 149/157/2
usemtl wool:grey
s 41
f 77/161/3 153/162/3 154/163/3 1/164/3
usemtl wool:grey
s 42
f 81/165/3 82/166/3 6/167/3 5/168/3
usemtl wool:grey
s 43
f 153/169/3 78/170/3 87/171/3 88/172/3
usemtl wool:grey
s 44
f 12/173/3 31/174/3 107/175/3 92/176/3
usemtl wool:grey
s 45
f 16/177/3 15/178/3 95/179/3 96/180/3
usemtl wool:grey
s 46
f 20/181/3 19/182/3 99/183/3 100/184/3
usemtl wool:grey
s 47
f 24/185/3 23/186/3 2/187/3 154/188/3
usemtl wool:grey
s 48
f 87/189/3 101/190/3 155/191/3 11/192/3
usemtl wool:grey
s 49
f 104/193/3 156/194/3 157/195/3 28/196/3
usemtl wool:grey
s 50
f 91/197/3 158/198/3 25/199/3 23/200/3
usemtl wool:grey
s 51
f 156/201/3 105/202/3 159/203/3 35/204/3
usemtl wool:grey
s 52
f 111/205/3 160/206/3 29/207/3 157/208/3
usemtl wool:grey
s 53
f 32/209/3 39/210/3 115/211/3 108/212/3
usemtl wool:grey
s 54
f 36/213/3 43/214/3 119/215/3 112/216/3
usemtl wool:grey
s 55
f 40/217/3 47/218/3 123/219/3 116/220/3
usemtl wool:grey
s 56
f 44/221/3 51/222/3 127/223/3 120/224/3
usemtl wool:grey
s 57
f 48/225/3 155/226/3 158/227/3 124/228/3
usemtl wool:grey
s 58
f 52/229/3 159/230/3 160/231/3 128/232/3
usemtl wool:grey
s 59
f 131/233/3 132/234/3 161/235/3 101/236/3
usemtl wool:grey
s 60
f 135/237/3 136/238/3 74/239/3 73/240/3
usemtl wool:grey
s 61
f 58/241/3 57/242/3 143/243/3 144/244/3
usemtl wool:grey
s 62
f 62/245/3 61/246/3 147/247/3 148/248/3
usemtl wool:grey
s 63
f 66/249/3 65/250/3 151/251/3 152/252/3
usemtl wool:grey
s 64
f 25/253/3 162/254/3 70/255/3 69/256/3
usemtl wool:grey
s 65
f 140/257/3 161/258/3 162/259/3 68/260/3
usemtl wool:grey
s 66
f 4/264/4 3/263/4 79/262/4 80/261/4
usemtl wool:grey
s 67
f 8/268/4 164/267/4 163/266/4 84/265/4
usemtl wool:grey
s 68
f 85/272/4 86/271/4 83/270/4 163/269/4
usemtl wool:grey
s 69
f 89/276/4 90/275/4 10/274/4 9/273/4
usemtl wool:grey
s 70
f 93/280/4 94/279/4 14/278/4 13/277/4
usemtl wool:grey
s 71
f 97/284/4 114/283/4 38/282/4 17/281/4
usemtl wool:grey
s 72
f 164/288/4 7/287/4 22/286/4 21/285/4
usemtl wool:grey
s 73
f 27/292/4 166/291/4 165/290/4 103/289/4
usemtl wool:grey
s 74
f 18/296/4 167/295/4 106/294/4 86/293/4
usemtl wool:grey
s 75
f 22/300/4 30/299/4 168/298/4 98/297/4
usemtl wool:grey
s 76
f 34/304/4 169/303/4 102/302/4 165/301/4
usemtl wool:grey
s 77
f 166/308/4 26/307/4 170/306/4 110/305/4
usemtl wool:grey
s 78
f 109/312/4 118/311/4 42/310/4 33/309/4
usemtl wool:grey
s 79
f 113/316/4 122/315/4 46/314/4 37/313/4
usemtl wool:grey
s 80
f 117/320/4 126/319/4 50/318/4 41/317/4
usemtl wool:grey
s 81
f 121/324/4 130/323/4 54/322/4 45/321/4
usemtl wool:grey
s 82
f 125/328/4 170/327/4 169/326/4 49/325/4
usemtl wool:grey
s 83
f 129/332/4 168/331/4 167/330/4 53/329/4
usemtl wool:grey
s 84
f 72/336/4 71/335/4 133/334/4 134/333/4
usemtl wool:grey
s 85
f 106/340/4 171/339/4 137/338/4 138/337/4
usemtl wool:grey
s 86
f 141/344/4 142/343/4 56/342/4 55/341/4
usemtl wool:grey
s 87
f 145/348/4 146/347/4 60/346/4 59/345/4
usemtl wool:grey
s 88
f 149/352/4 150/351/4 64/350/4 63/349/4
usemtl wool:grey
s 89
f 76/356/4 75/355/4 172/354/4 30/353/4
usemtl wool:grey
s 90
f 67/360/4 172/359/4 171/358/4 139/357/4
usemtl wool:grey
s 91
f 77/361/5 1/362/5 4/363/5 80/364/5
usemtl wool:grey
s 92
f 81/365/5 5/366/5 8/367/5 84/368/5
usemtl wool:grey
s 93
f 85/369/5 17/370/5 12/371/5 88/372/5
usemtl wool:grey
s 94
f 16/373/5 173/374/5 174/375/5 9/376/5
usemtl wool:grey
s 95
f 20/377/5 175/378/5 176/379/5 13/380/5
usemtl wool:grey
s 96
f 89/381/5 174/382/5 24/383/5 92/384/5
usemtl wool:grey
s 97
f 93/385/5 176/386/5 173/387/5 96/388/5
usemtl wool:grey
s 98
f 97/389/5 21/390/5 175/391/5 100/392/5
usemtl wool:grey
s 99
f 32/393/5 108/394/5 109/395/5 33/396/5
usemtl wool:grey
s 100
f 36/397/5 112/398/5 113/399/5 37/400/5
usemtl wool:grey
s 101
f 40/401/5 116/402/5 117/403/5 41/404/5
usemtl wool:grey
s 102
f 44/405/5 120/406/5 121/407/5 45/408/5
usemtl wool:grey
s 103
f 48/409/5 124/410/5 125/411/5 49/412/5
usemtl wool:grey
s 104
f 52/413/5 128/414/5 129/415/5 53/416/5
usemtl wool:grey
s 105
f 131/417/5 101/418/5 177/419/5 134/420/5
usemtl wool:grey
s 106
f 135/421/5 178/422/5 106/423/5 138/424/5
usemtl wool:grey
s 107
f 102/425/5 179/426/5 72/427/5 177/428/5
usemtl wool:grey
s 108
f 106/429/5 167/430/5 155/431/5 101/432/5
usemtl wool:grey
s 109
f 178/433/5 73/434/5 180/435/5 105/436/5
usemtl wool:grey
s 110
f 58/437/5 181/438/5 25/439/5 155/440/5
usemtl wool:grey
s 111
f 62/441/5 182/442/5 183/443/5 55/444/5
usemtl wool:grey
s 112
f 66/445/5 184/446/5 185/447/5 59/448/5
usemtl wool:grey
s 113
f 167/449/5 30/450/5 186/451/5 63/452/5
usemtl wool:grey
s 114
f 141/453/5 183/454/5 181/455/5 144/456/5
usemtl wool:grey
s 115
f 145/457/5 185/458/5 182/459/5 148/460/5
usemtl wool:grey
s 116
f 149/461/5 186/462/5 184/463/5 152/464/5
usemtl wool:grey
s 117
f 25/465/5 69/466/5 179/467/5 26/468/5
usemtl wool:grey
s 118
f 29/469/5 180/470/5 76/471/5 30/472/5
usemtl wool:grey
s 119
f 79/476/6 187/475/6 87/474/6 78/473/6
usemtl wool:grey
s 120
f 83/480/6 86/479/6 188/478/6 82/477/6
usemtl wool:grey
s 121
f 187/484/6 3/483/6 189/482/6 103/481/6
usemtl wool:grey
s 122
f 87/488/6 11/487/6 18/486/6 86/485/6
usemtl wool:grey
s 123
f 104/492/6 190/491/6 6/490/6 188/489/6
usemtl wool:grey
s 124
f 10/496/6 192/495/6 191/494/6 15/493/6
usemtl wool:grey
s 125
f 14/500/6 194/499/6 193/498/6 19/497/6
usemtl wool:grey
s 126
f 91/504/6 23/503/6 192/502/6 90/501/6
usemtl wool:grey
s 127
f 95/508/6 191/507/6 194/506/6 94/505/6
usemtl wool:grey
s 128
f 99/512/6 193/511/6 22/510/6 98/509/6
usemtl wool:grey
s 129
f 27/516/6 189/515/6 2/514/6 23/513/6
usemtl wool:grey
s 130
f 22/520/6 7/519/6 190/518/6 28/517/6
usemtl wool:grey
s 131
f 34/524/6 110/523/6 107/522/6 31/521/6
usemtl wool:grey
s 132
f 38/528/6 114/527/6 111/526/6 35/525/6
usemtl wool:grey
s 133
f 42/532/6 118/531/6 115/530/6 39/529/6
usemtl wool:grey
s 134
f 46/536/6 122/535/6 119/534/6 43/533/6
usemtl wool:grey
s 135
f 50/540/6 126/539/6 123/538/6 47/537/6
usemtl wool:grey
s 136
f 54/544/6 130/543/6 127/542/6 51/541/6
usemtl wool:grey
s 137
f 140/548/6 196/547/6 195/546/6 139/545/6
usemtl wool:grey
s 138
f 196/552/6 68/551/6 197/550/6 57/549/6
usemtl wool:grey
s 139
f 56/556/6 199/555/6 198/554/6 61/553/6
usemtl wool:grey
s 140
f 60/560/6 201/559/6 200/558/6 65/557/6
usemtl wool:grey
s 141
f 64/564/6 202/563/6 67/562/6 195/561/6
usemtl wool:grey
s 142
f 143/568/6 197/567/6 199/566/6 142/565/6
usemtl wool:grey
s 143
f 147/572/6 198/571/6 201/570/6 146/569/6
usemtl wool:grey
s 144
f 151/576/6 200/575/6 202/574/6 150/573/6
usemtl wool:grey
s 145
f 133/580/6 71/579/6 70/578/6 132/577/6
usemtl wool:grey
s 146
f 137/584/6 75/583/6 74/582/6 136/581/6


