# node obj {x=0, y=0, z=0}
o node_0_0_0

v 0.375 0.0625 -0.125
v 0.375 0.0625 0.0
v 0.4375 0.0625 0.0
v 0.4375 0.0625 -0.125
v -0.5 0.0625 -0.125
v -0.5 0.0625 0.0
v -0.4375 0.0625 0.0
v -0.4375 0.0625 -0.125
v -0.4375 0.0 -0.0625
v -0.4375 0.0 0.0
v 0.375 0.0 0.0
v 0.375 0.0 -0.0625
v 0.1875 -0.0625 0.0
v 0.1875 -0.0625 0.4375
v 0.25 -0.0625 0.4375
v 0.25 -0.0625 0.0
v -0.25 -0.0625 0.0
v -0.25 -0.0625 0.4375
v -0.1875 -0.0625 0.4375
v -0.1875 -0.0625 0.0
v -0.1875 0.0 0.0
v -0.1875 0.0 0.375
v 0.1875 0.0 0.375
v 0.1875 0.0 0.0
v -0.4375 -0.125 0.25
v -0.4375 -0.125 0.4375
v -0.3125 -0.125 0.4375
v -0.3125 -0.125 0.25
v 0.3125 -0.0625 0.25
v 0.3125 -0.0625 0.375
v 0.4375 -0.0625 0.375
v 0.4375 -0.0625 0.25
v 0.25 -0.125 0.375
v 0.25 -0.125 0.4375
v 0.4375 -0.125 0.4375
v 0.4375 -0.125 0.375
v -0.1875 -0.125 0.375
v -0.1875 -0.125 0.4375
v 0.1875 -0.125 0.4375
v 0.1875 -0.125 0.375
v -0.3125 -0.125 0.375
v -0.25 -0.125 0.4375
v -0.25 -0.125 0.375
v 0.375 -0.0625 -0.125
v 0.375 -0.0625 -0.0625
v 0.4375 -0.0625 -0.0625
v 0.4375 -0.0625 -0.125
v -0.5 -0.0625 -0.125
v -0.5 -0.0625 -0.0625
v -0.4375 -0.0625 -0.0625
v -0.4375 -0.0625 -0.125
v -0.5 -0.125 -0.0625
v -0.5 -0.125 0.0
v 0.4375 -0.125 0.0
v 0.4375 -0.125 -0.0625
v -0.1875 -0.5 0.0
v -0.1875 -0.5 0.375
v 0.1875 -0.5 0.375
v 0.1875 -0.5 0.0
v 0.1875 -0.125 0.0
v 0.25 -0.125 0.0
v -0.25 -0.125 0.0
v -0.1875 -0.125 0.0
v 0.3125 -0.5 0.25
v 0.3125 -0.5 0.375
v 0.4375 -0.5 0.375
v 0.4375 -0.5 0.25
v -0.4375 -0.5 0.25
v -0.4375 -0.5 0.375
v -0.3125 -0.5 0.375
v -0.3125 -0.5 0.25
v -0.4375 -0.25 0.375
v -0.4375 -0.25 0.4375
v 0.4375 -0.25 0.4375
v 0.4375 -0.25 0.375
v 0.375 0.0625 -0.0625
v -0.5 -0.0625 0.0
v -0.1875 -0.0625 0.375
v -0.4375 -0.125 0.375
v 0.1875 -0.0625 0.375
v 0.4375 -0.0625 0.0
v -0.4375 0.0625 -0.0625
v 0.1875 -0.25 0.375
v 0.3125 -0.125 0.375
v 0.3125 -0.25 0.375
v -0.3125 -0.25 0.375
v -0.1875 -0.25 0.375
v 0.4375 0.0 0.0
v -0.5 0.0 0.0

vt 0.875 0.375
vt 0.875 0.5
vt 0.9375 0.5
vt 0.9375 0.375
vt 0.0 0.375
vt 0.0 0.5
vt 0.0625 0.5
vt 0.0625 0.375
vt 0.0625 0.4375
vt 0.0625 0.5
vt 0.875 0.5
vt 0.875 0.4375
vt 0.6875 0.5
vt 0.6875 0.9375
vt 0.75 0.9375
vt 0.75 0.5
vt 0.25 0.5
vt 0.25 0.9375
vt 0.3125 0.9375
vt 0.3125 0.5
vt 0.3125 0.5
vt 0.3125 0.875
vt 0.6875 0.875
vt 0.6875 0.5
vt 0.0625 0.75
vt 0.0625 0.9375
vt 0.1875 0.9375
vt 0.1875 0.75
vt 0.8125 0.75
vt 0.8125 0.875
vt 0.9375 0.875
vt 0.9375 0.75
vt 0.75 0.875
vt 0.75 0.9375
vt 0.9375 0.9375
vt 0.9375 0.875
vt 0.3125 0.875
vt 0.3125 0.9375
vt 0.6875 0.9375
vt 0.6875 0.875
vt 0.1875 0.875
vt 0.1875 0.9375
vt 0.25 0.9375
vt 0.25 0.875
vt 0.875 0.375
vt 0.875 0.4375
vt 0.9375 0.4375
vt 0.9375 0.375
vt 0.0 0.375
vt 0.0 0.4375
vt 0.0625 0.4375
vt 0.0625 0.375
vt 0.0 0.4375
vt 0.0 0.5
vt 0.9375 0.5
vt 0.9375 0.4375
vt 0.3125 0.5
vt 0.3125 0.875
vt 0.6875 0.875
vt 0.6875 0.5
vt 0.6875 0.5
vt 0.6875 0.875
vt 0.75 0.875
vt 0.75 0.5
vt 0.25 0.5
vt 0.25 0.875
vt 0.3125 0.875
vt 0.3125 0.5
vt 0.8125 0.75
vt 0.8125 0.875
vt 0.9375 0.875
vt 0.9375 0.75
vt 0.0625 0.75
vt 0.0625 0.875
vt 0.1875 0.875
vt 0.1875 0.75
vt 0.0625 0.875
vt 0.0625 0.9375
vt 0.9375 0.9375
vt 0.9375 0.875
vt 0.375 0.4375
vt 0.375 0.5625
vt 0.4375 0.5625
vt 0.4375 0.4375
vt 0.375 0.4375
vt 0.375 0.5625
vt 0.5 0.5625
vt 0.5 0.4375
vt 0.4375 0.375
vt 0.4375 0.4375
vt 0.5 0.4375
vt 0.5 0.375
vt 0.4375 0.5
vt 0.4375 0.5625
vt 0.5 0.5625
vt 0.5 0.5
vt 0.5 0.0
vt 0.5 0.375
vt 0.875 0.375
vt 0.875 0.0
vt 0.5 0.375
vt 0.5 0.4375
vt 0.9375 0.4375
vt 0.9375 0.375
vt 0.5 0.4375
vt 0.5 0.5
vt 0.875 0.5
vt 0.875 0.4375
vt 0.75 0.0
vt 0.75 0.4375
vt 0.875 0.4375
vt 0.875 0.0
vt 0.75 0.0
vt 0.75 0.375
vt 0.875 0.375
vt 0.875 0.0
vt 0.875 0.25
vt 0.875 0.375
vt 0.9375 0.375
vt 0.9375 0.25
vt 0.875 0.375
vt 0.875 0.4375
vt 0.9375 0.4375
vt 0.9375 0.375
vt 0.375 0.4375
vt 0.375 0.5625
vt 0.5 0.5625
vt 0.5 0.4375
vt 0.375 0.4375
vt 0.375 0.5625
vt 0.4375 0.5625
vt 0.4375 0.4375
vt 0.4375 0.375
vt 0.4375 0.4375
vt 0.5 0.4375
vt 0.5 0.375
vt 0.4375 0.5
vt 0.4375 0.5625
vt 0.5 0.5625
vt 0.5 0.5
vt 0.5 0.0
vt 0.5 0.375
vt 0.875 0.375
vt 0.875 0.0
vt 0.5 0.375
vt 0.5 0.4375
vt 0.9375 0.4375
vt 0.9375 0.375
vt 0.5 0.4375
vt 0.5 0.5
vt 0.875 0.5
vt 0.875 0.4375
vt 0.75 0.0
vt 0.75 0.4375
vt 0.875 0.4375
vt 0.875 0.0
vt 0.75 0.0
vt 0.75 0.375
vt 0.875 0.375
vt 0.875 0.0
vt 0.875 0.25
vt 0.875 0.375
vt 0.9375 0.375
vt 0.9375 0.25
vt 0.875 0.375
vt 0.875 0.4375
vt 0.9375 0.4375
vt 0.9375 0.375
vt 0.875 0.4375
vt 0.875 0.5625
vt 0.9375 0.5625
vt 0.9375 0.4375
vt 0.0 0.4375
vt 0.0 0.5625
vt 0.0625 0.5625
vt 0.0625 0.4375
vt 0.0 0.375
vt 0.0 0.4375
vt 0.9375 0.4375
vt 0.9375 0.375
vt 0.0625 0.4375
vt 0.0625 0.5
vt 0.875 0.5
vt 0.875 0.4375
vt 0.3125 0.0
vt 0.3125 0.375
vt 0.6875 0.375
vt 0.6875 0.0
vt 0.8125 0.0
vt 0.8125 0.4375
vt 0.9375 0.4375
vt 0.9375 0.0
vt 0.0625 0.0
vt 0.0625 0.375
vt 0.1875 0.375
vt 0.1875 0.0
vt 0.6875 0.25
vt 0.6875 0.375
vt 0.8125 0.375
vt 0.8125 0.25
vt 0.1875 0.25
vt 0.1875 0.375
vt 0.3125 0.375
vt 0.3125 0.25
vt 0.75 0.375
vt 0.75 0.4375
vt 0.9375 0.4375
vt 0.9375 0.375
vt 0.0 0.375
vt 0.0 0.4375
vt 0.25 0.4375
vt 0.25 0.375
vt 0.6875 0.4375
vt 0.6875 0.5
vt 0.9375 0.5
vt 0.9375 0.4375
vt 0.0 0.4375
vt 0.0 0.5
vt 0.3125 0.5
vt 0.3125 0.4375
vt 0.875 0.5
vt 0.875 0.5625
vt 0.9375 0.5625
vt 0.9375 0.5
vt 0.0 0.5
vt 0.0 0.5625
vt 0.0625 0.5625
vt 0.0625 0.5
vt 0.8125 0.0
vt 0.8125 0.25
vt 0.9375 0.25
vt 0.9375 0.0
vt 0.3125 0.0
vt 0.3125 0.25
vt 0.6875 0.25
vt 0.6875 0.0
vt 0.0625 0.0
vt 0.0625 0.25
vt 0.1875 0.25
vt 0.1875 0.0
vt 0.8125 0.375
vt 0.8125 0.4375
vt 0.9375 0.4375
vt 0.9375 0.375
vt 0.3125 0.375
vt 0.3125 0.5
vt 0.6875 0.5
vt 0.6875 0.375
vt 0.0625 0.25
vt 0.0625 0.375
vt 0.9375 0.375
vt 0.9375 0.25
vt 0.6875 0.375
vt 0.6875 0.4375
vt 0.75 0.4375
vt 0.75 0.375
vt 0.25 0.375
vt 0.25 0.4375
vt 0.3125 0.4375
vt 0.3125 0.375

vn 0 1 0
vn 0 -1 0
vn -1 0 0
vn 1 0 0
vn 0 0 -1
vn 0 0 1

g node_0_0_0
usemtl wool:yellow
s 1
f 1/1/1 2/2/1 3/3/1 4/4/1
usemtl wool:yellow
s 2
f 5/5/1 6/6/1 7/7/1 8/8/1
usemtl wool:yellow
s 3
f 9/9/1 10/10/1 11/11/1 12/12/1
usemtl wool:grey
s 4
f 13/13/1 14/14/1 15/15/1 16/16/1
usemtl wool:grey
s 5
f 17/17/1 18/18/1 19/19/1 20/20/1
usemtl default:stone
s 6
f 21/21/1 22/22/1 23/23/1 24/24/1
usemtl wool:grey
s 7
f 25/25/1 26/26/1 27/27/1 28/28/1
usemtl wool:grey
s 8
f 29/29/1 30/30/1 31/31/1 32/32/1
usemtl wool:grey
s 9
f 33/33/1 34/34/1 35/35/1 36/36/1
usemtl wool:grey
s 10
f 37/37/1 38/38/1 39/39/1 40/40/1
usemtl wool:grey
s 11
f 41/41/1 27/42/1 42/43/1 43/44/1
usemtl wool:yellow
s 12
f 47/48/2 46/47/2 45/46/2 44/45/2
usemtl wool:yellow
s 13
f 51/52/2 50/51/2 49/50/2 48/49/2
usemtl wool:grey
s 14
f 55/56/2 54/55/2 53/54/2 52/53/2
usemtl default:stone
s 15
f 59/60/2 58/59/2 57/58/2 56/57/2
usemtl wool:grey
s 16
f 61/64/2 33/63/2 40/62/2 60/61/2
usemtl wool:grey
s 17
f 63/68/2 37/67/2 43/66/2 62/65/2
usemtl wool:grey
s 18
f 67/72/2 66/71/2 65/70/2 64/69/2
usemtl wool:grey
s 19
f 71/76/2 70/75/2 69/74/2 68/73/2
usemtl wool:grey
s 20
f 75/80/2 74/79/2 73/78/2 72/77/2
usemtl wool:yellow
s 21
f 44/81/3 45/82/3 76/83/3 1/84/3
usemtl wool:yellow
s 22
f 48/85/3 77/86/3 6/87/3 5/88/3
usemtl wool:grey
s 23
f 52/89/3 53/90/3 77/91/3 49/92/3
usemtl wool:yellow
s 24
f 12/93/3 11/94/3 2/95/3 76/96/3
usemtl default:stone
s 25
f 56/97/3 57/98/3 37/99/3 63/100/3
usemtl wool:grey
s 26
f 62/101/3 42/102/3 18/103/3 17/104/3
usemtl default:stone
s 27
f 20/105/3 78/106/3 22/107/3 21/108/3
usemtl wool:grey
s 28
f 64/109/3 65/110/3 30/111/3 29/112/3
usemtl wool:grey
s 29
f 68/113/3 69/114/3 79/115/3 25/116/3
usemtl wool:grey
s 30
f 72/117/3 73/118/3 26/119/3 79/120/3
usemtl wool:grey
s 31
f 40/121/3 39/122/3 14/123/3 80/124/3
usemtl wool:yellow
s 32
f 4/128/4 3/127/4 81/126/4 47/125/4
usemtl wool:yellow
s 33
f 8/132/4 82/131/4 50/130/4 51/129/4
usemtl wool:grey
s 34
f 46/136/4 81/135/4 54/134/4 55/133/4
usemtl wool:yellow
s 35
f 82/140/4 7/139/4 10/138/4 9/137/4
usemtl default:stone
s 36
f 60/144/4 40/143/4 58/142/4 59/141/4
usemtl wool:grey
s 37
f 16/148/4 15/147/4 34/146/4 61/145/4
usemtl default:stone
s 38
f 24/152/4 23/151/4 80/150/4 13/149/4
usemtl wool:grey
s 39
f 32/156/4 31/155/4 66/154/4 67/153/4
usemtl wool:grey
s 40
f 28/160/4 41/159/4 70/158/4 71/157/4
usemtl wool:grey
s 41
f 36/164/4 35/163/4 74/162/4 75/161/4
usemtl wool:grey
s 42
f 78/168/4 19/167/4 38/166/4 37/165/4
usemtl wool:yellow
s 43
f 44/169/5 1/170/5 4/171/5 47/172/5
usemtl wool:yellow
s 44
f 48/173/5 5/174/5 8/175/5 51/176/5
usemtl wool:grey
s 45
f 52/177/5 49/178/5 46/179/5 55/180/5
usemtl wool:yellow
s 46
f 50/181/5 9/182/5 12/183/5 45/184/5
usemtl default:stone
s 47
f 56/185/5 63/186/5 60/187/5 59/188/5
usemtl wool:grey
s 48
f 64/189/5 29/190/5 32/191/5 67/192/5
usemtl wool:grey
s 49
f 68/193/5 25/194/5 28/195/5 71/196/5
usemtl wool:grey
s 50
f 83/197/5 40/198/5 84/199/5 85/200/5
usemtl wool:grey
s 51
f 86/201/5 41/202/5 37/203/5 87/204/5
usemtl wool:grey
s 52
f 54/208/6 81/207/6 16/206/6 61/205/6
usemtl wool:grey
s 53
f 62/212/6 17/211/6 77/210/6 53/209/6
usemtl wool:yellow
s 54
f 81/216/6 88/215/6 24/214/6 13/213/6
usemtl wool:yellow
s 55
f 20/220/6 21/219/6 89/218/6 77/217/6
usemtl wool:yellow
s 56
f 88/224/6 3/223/6 2/222/6 11/221/6
usemtl wool:yellow
s 57
f 10/228/6 7/227/6 6/226/6 89/225/6
usemtl wool:grey
s 58
f 66/232/6 75/231/6 85/230/6 65/229/6
usemtl default:stone
s 59
f 58/236/6 83/235/6 87/234/6 57/233/6
usemtl wool:grey
s 60
f 70/240/6 86/239/6 72/238/6 69/237/6
usemtl wool:grey
s 61
f 36/244/6 31/243/6 30/242/6 84/241/6
usemtl default:stone
s 62
f 40/248/6 23/247/6 22/246/6 37/245/6
usemtl wool:grey
s 63
f 74/252/6 35/251/6 26/250/6 73/249/6
usemtl wool:grey
s 64
f 34/256/6 15/255/6 14/254/6 39/253/6
usemtl wool:grey
s 65
f 38/260/6 19/259/6 18/258/6 42/257/6


