# node obj {x=0, y=0, z=0}
o node_0_0_0

v -0.0 0.0625 -0.0625
v -0.0 0.0625 0.0
v 0.125 0.0625 0.0
v 0.125 0.0625 -0.0625
v -0.0 -0.1875 0.0
v -0.0 -0.1875 0.0625
v 0.0625 -0.1875 0.0625
v 0.0625 -0.1875 0.0
v -0.0 -0.25 -0.0625
v -0.0 -0.25 0.0625
v 0.0625 -0.25 0.0625
v 0.0625 -0.25 -0.0625
v 0.0625 0.0 -0.0625
v 0.0625 0.0 0.0
v 0.125 0.0 0.0
v 0.125 0.0 -0.0625
v -0.0 -0.25 0.0
v 0.0625 -0.25 0.0
v 0.0625 0.0625 -0.0625
v 0.0625 0.0625 0.0

vt 0.5 0.4375
vt 0.5 0.5
vt 0.625 0.5
vt 0.625 0.4375
vt 0.5 0.5
vt 0.5 0.5625
vt 0.5625 0.5625
vt 0.5625 0.5
vt 0.5 0.4375
vt 0.5 0.5625
vt 0.5625 0.5625
vt 0.5625 0.4375
vt 0.5625 0.4375
vt 0.5625 0.5
vt 0.625 0.5
vt 0.625 0.4375
vt 0.25 0.4375
vt 0.25 0.5
vt 0.5625 0.5
vt 0.5625 0.4375
vt 0.25 0.5
vt 0.25 0.5625
vt 0.3125 0.5625
vt 0.3125 0.5
vt 0.25 0.4375
vt 0.25 0.5
vt 0.5 0.5
vt 0.5 0.4375
vt 0.5 0.4375
vt 0.5 0.5
vt 0.5625 0.5
vt 0.5625 0.4375
vt 0.25 0.5
vt 0.25 0.5625
vt 0.3125 0.5625
vt 0.3125 0.5
vt 0.5 0.25
vt 0.5 0.5625
vt 0.5625 0.5625
vt 0.5625 0.25
vt 0.5625 0.5
vt 0.5625 0.5625
vt 0.625 0.5625
vt 0.625 0.5
vt 0.5 0.3125
vt 0.5 0.5625
vt 0.5625 0.5625
vt 0.5625 0.3125
vt 0.5625 0.5
vt 0.5625 0.5625
vt 0.625 0.5625
vt 0.625 0.5
vt 0.5 0.25
vt 0.5 0.3125
vt 0.5625 0.3125
vt 0.5625 0.25

vn 0 1 0
vn 0 -1 0
vn -1 0 0
vn 1 0 0
vn 0 0 -1
vn 0 0 1

g node_0_0_0
usemtl default:steelblock
s 1
f 1/1/1 2/2/1 3/3/1 4/4/1
usemtl default:steelblock
s 2
f 5/5/1 6/6/1 7/7/1 8/8/1
usemtl default:steelblock
s 3
f 12/12/2 11/11/2 10/10/2 9/9/2
usemtl default:steelblock
s 4
f 16/16/2 15/15/2 14/14/2 13/13/2
usemtl default:steelblock
s 5
f 9/17/3 17/18/3 2/19/3 1/20/3
usemtl default:steelblock
s 6
f 17/21/3 10/22/3 6/23/3 5/24/3
usemtl default:steelblock
s 7
f 13/28/4 14/27/4 18/26/4 12/25/4
usemtl default:steelblock
s 8
f 4/32/4 3/31/4 15/30/4 16/29/4
usemtl default:steelblock
s 9
f 8/36/4 7/35/4 11/34/4 18/33/4
usemtl default:steelblock
s 10
f 9/37/5 1/38/5 19/39/5 12/40/5
usemtl default:steelblock
s 11
f 13/41/5 19/42/5 4/43/5 16/44/5
usemtl default:steelblock
s 12
f 8/48/6 20/47/6 2/46/6 5/45/6
usemtl default:steelblock
s 13
f 15/52/6 3/51/6 20/50/6 14/49/6
usemtl default:steelblock
s 14
f 11/56/6 7/55/6 6/54/6 10/53/6


# node obj {x=0, y=1, z=0}
o node_0_1_0

v -0.0 -0.1875 -0.0625
v -0.0 -0.1875 0.0
v 0.3125 -0.1875 0.0
v 0.3125 -0.1875 -0.0625
v -0.0 -0.1875 0.0625
v 0.0625 -0.1875 0.0625
v 0.0625 -0.1875 0.0
v 0.25 -0.3125 -0.0625
v 0.25 -0.3125 0.0
v 0.3125 -0.3125 0.0
v 0.3125 -0.3125 -0.0625
v -0.0 -0.25 -0.0625
v -0.0 -0.25 0.0
v 0.25 -0.25 0.0
v 0.25 -0.25 -0.0625
v -0.0 -0.25 0.0625
v 0.0625 -0.25 0.0625
v 0.0625 -0.25 0.0
v 0.25 -0.1875 -0.0625
v 0.25 -0.1875 0.0

vt 0.5 0.4375
vt 0.5 0.5
vt 0.8125 0.5
vt 0.8125 0.4375
vt 0.5 0.5
vt 0.5 0.5625
vt 0.5625 0.5625
vt 0.5625 0.5
vt 0.75 0.4375
vt 0.75 0.5
vt 0.8125 0.5
vt 0.8125 0.4375
vt 0.5 0.4375
vt 0.5 0.5
vt 0.75 0.5
vt 0.75 0.4375
vt 0.5 0.5
vt 0.5 0.5625
vt 0.5625 0.5625
vt 0.5625 0.5
vt 0.1875 0.4375
vt 0.1875 0.5
vt 0.25 0.5
vt 0.25 0.4375
vt 0.25 0.4375
vt 0.25 0.5625
vt 0.3125 0.5625
vt 0.3125 0.4375
vt 0.1875 0.4375
vt 0.1875 0.5
vt 0.3125 0.5
vt 0.3125 0.4375
vt 0.25 0.5
vt 0.25 0.5625
vt 0.3125 0.5625
vt 0.3125 0.5
vt 0.75 0.1875
vt 0.75 0.3125
vt 0.8125 0.3125
vt 0.8125 0.1875
vt 0.5 0.25
vt 0.5 0.3125
vt 0.75 0.3125
vt 0.75 0.25
vt 0.75 0.1875
vt 0.75 0.3125
vt 0.8125 0.3125
vt 0.8125 0.1875
vt 0.5625 0.25
vt 0.5625 0.3125
vt 0.75 0.3125
vt 0.75 0.25
vt 0.5 0.25
vt 0.5 0.3125
vt 0.5625 0.3125
vt 0.5625 0.25

vn 0 1 0
vn 0 -1 0
vn -1 0 0
vn 1 0 0
vn 0 0 -1
vn 0 0 1

g node_0_1_0
usemtl default:steelblock
s 15
f 21/57/7 22/58/7 23/59/7 24/60/7
usemtl default:steelblock
s 16
f 22/61/7 25/62/7 26/63/7 27/64/7
usemtl default:steelblock
s 17
f 31/68/8 30/67/8 29/66/8 28/65/8
usemtl default:steelblock
s 18
f 35/72/8 34/71/8 33/70/8 32/69/8
usemtl default:steelblock
s 19
f 38/76/8 37/75/8 36/74/8 33/73/8
usemtl default:steelblock
s 20
f 28/77/9 29/78/9 34/79/9 35/80/9
usemtl default:steelblock
s 21
f 32/81/9 36/82/9 25/83/9 21/84/9
usemtl default:steelblock
s 22
f 24/88/10 23/87/10 30/86/10 31/85/10
usemtl default:steelblock
s 23
f 27/92/10 26/91/10 37/90/10 38/89/10
usemtl default:steelblock
s 24
f 28/93/11 39/94/11 24/95/11 31/96/11
usemtl default:steelblock
s 25
f 32/97/11 21/98/11 39/99/11 35/100/11
usemtl default:steelblock
s 26
f 30/104/12 23/103/12 40/102/12 29/101/12
usemtl default:steelblock
s 27
f 34/108/12 40/107/12 27/106/12 38/105/12
usemtl default:steelblock
s 28
f 37/112/12 26/111/12 25/110/12 36/109/12


# node obj {x=0, y=2, z=0}
o node_0_2_0

v -0.0625 -0.4375 -0.0625
v -0.0625 -0.4375 0.0
v -0.0 -0.4375 0.0
v -0.0 -0.4375 -0.0625
v -0.0 -0.1875 -0.0625
v -0.0 -0.1875 0.0625
v 0.0625 -0.1875 0.0625
v 0.0625 -0.1875 -0.0625
v -0.0625 -0.5 -0.0625
v -0.0625 -0.5 0.0
v 0.0625 -0.5 0.0
v 0.0625 -0.5 -0.0625
v -0.0 -0.25 0.0
v -0.0 -0.25 0.0625
v 0.0625 -0.25 0.0625
v 0.0625 -0.25 0.0
v -0.0 -0.1875 0.0
v 0.0625 -0.1875 0.0
v 0.0625 -0.4375 -0.0625
v 0.0625 -0.4375 0.0

vt 0.4375 0.4375
vt 0.4375 0.5
vt 0.5 0.5
vt 0.5 0.4375
vt 0.5 0.4375
vt 0.5 0.5625
vt 0.5625 0.5625
vt 0.5625 0.4375
vt 0.4375 0.4375
vt 0.4375 0.5
vt 0.5625 0.5
vt 0.5625 0.4375
vt 0.5 0.5
vt 0.5 0.5625
vt 0.5625 0.5625
vt 0.5625 0.5
vt 0.0 0.4375
vt 0.0 0.5
vt 0.0625 0.5
vt 0.0625 0.4375
vt 0.0625 0.4375
vt 0.0625 0.5
vt 0.3125 0.5
vt 0.3125 0.4375
vt 0.25 0.5
vt 0.25 0.5625
vt 0.3125 0.5625
vt 0.3125 0.5
vt 0.0 0.4375
vt 0.0 0.5
vt 0.3125 0.5
vt 0.3125 0.4375
vt 0.25 0.5
vt 0.25 0.5625
vt 0.3125 0.5625
vt 0.3125 0.5
vt 0.4375 0.0
vt 0.4375 0.0625
vt 0.5625 0.0625
vt 0.5625 0.0
vt 0.5 0.0625
vt 0.5 0.3125
vt 0.5625 0.3125
vt 0.5625 0.0625
vt 0.4375 0.0
vt 0.4375 0.0625
vt 0.5625 0.0625
vt 0.5625 0.0
vt 0.5 0.0625
vt 0.5 0.25
vt 0.5625 0.25
vt 0.5625 0.0625
vt 0.5 0.25
vt 0.5 0.3125
vt 0.5625 0.3125
vt 0.5625 0.25

vn 0 1 0
vn 0 -1 0
vn -1 0 0
vn 1 0 0
vn 0 0 -1
vn 0 0 1

g node_0_2_0
usemtl default:steelblock
s 29
f 41/113/13 42/114/13 43/115/13 44/116/13
usemtl default:steelblock
s 30
f 45/117/13 46/118/13 47/119/13 48/120/13
usemtl default:steelblock
s 31
f 52/124/14 51/123/14 50/122/14 49/121/14
usemtl default:steelblock
s 32
f 56/128/14 55/127/14 54/126/14 53/125/14
usemtl default:steelblock
s 33
f 49/129/15 50/130/15 42/131/15 41/132/15
usemtl default:steelblock
s 34
f 44/133/15 43/134/15 57/135/15 45/136/15
usemtl default:steelblock
s 35
f 53/137/15 54/138/15 46/139/15 57/140/15
usemtl default:steelblock
s 36
f 48/144/16 58/143/16 51/142/16 52/141/16
usemtl default:steelblock
s 37
f 58/148/16 47/147/16 55/146/16 56/145/16
usemtl default:steelblock
s 38
f 49/149/17 41/150/17 59/151/17 52/152/17
usemtl default:steelblock
s 39
f 44/153/17 45/154/17 48/155/17 59/156/17
usemtl default:steelblock
s 40
f 51/160/18 60/159/18 42/158/18 50/157/18
usemtl default:steelblock
s 41
f 60/164/18 56/163/18 53/162/18 43/161/18
usemtl default:steelblock
s 42
f 55/168/18 47/167/18 46/166/18 54/165/18


