# Blender v3.0.0 OBJ File: ''
# www.blender.org
mtllib power_generators_fueltank.mtl
o node_0_0_0.010
v -0.375000 -0.312500 -0.500000
v -0.375000 -0.312500 -0.437500
v 0.375000 -0.312500 -0.437500
v 0.375000 -0.312500 -0.500000
v -0.500000 0.187500 -0.500000
v -0.500000 0.187500 -0.437500
v 0.500000 0.187500 -0.437500
v 0.500000 0.187500 -0.500000
v 0.437500 0.187500 -0.437500
v 0.437500 0.187500 0.500000
v 0.500000 0.187500 0.500000
v -0.500000 0.187500 0.500000
v -0.437500 0.187500 0.500000
v -0.437500 0.187500 -0.437500
v 0.375000 0.250000 -0.437500
v 0.375000 0.250000 -0.375000
v 0.437500 0.250000 -0.375000
v 0.437500 0.250000 -0.437500
v -0.375000 0.250000 -0.437500
v -0.375000 0.250000 -0.375000
v -0.437500 0.250000 -0.437500
v -0.437500 0.250000 -0.375000
v 0.437500 -0.312500 -0.375000
v 0.437500 -0.312500 0.375000
v 0.500000 -0.312500 0.375000
v 0.500000 -0.312500 -0.375000
v -0.500000 -0.312500 -0.375000
v -0.500000 -0.312500 0.375000
v -0.437500 -0.312500 0.375000
v -0.437500 -0.312500 -0.375000
v 0.375000 0.250000 0.375000
v 0.437500 0.250000 0.375000
v -0.437500 0.250000 0.375000
v -0.375000 0.250000 0.375000
v -0.375000 0.312500 -0.375000
v -0.375000 0.312500 -0.312500
v 0.375000 0.312500 -0.312500
v 0.375000 0.312500 -0.375000
v 0.000000 0.125000 -0.312500
v 0.000000 0.125000 -0.250000
v 0.062500 0.125000 -0.250000
v 0.062500 0.125000 -0.312500
v 0.312500 0.312500 -0.312500
v 0.312500 0.312500 0.375000
v 0.375000 0.312500 0.375000
v -0.375000 0.312500 0.375000
v -0.312500 0.312500 0.375000
v -0.312500 0.312500 -0.312500
v 0.125000 0.375000 -0.312500
v 0.125000 0.375000 0.312500
v 0.312500 0.375000 0.312500
v 0.312500 0.375000 -0.312500
v -0.312500 0.375000 -0.312500
v -0.312500 0.375000 0.312500
v -0.125000 0.375000 0.312500
v -0.125000 0.375000 -0.312500
v -0.125000 0.500000 -0.312500
v -0.125000 0.500000 -0.062500
v 0.125000 0.500000 -0.062500
v 0.125000 0.500000 -0.312500
v -0.125000 0.375000 -0.062500
v 0.125000 0.375000 -0.062500
v -0.312500 0.312500 0.312500
v 0.312500 0.312500 0.312500
v 0.375000 0.250000 0.437500
v 0.437500 0.250000 0.437500
v -0.375000 0.250000 0.437500
v -0.437500 0.250000 0.437500
v -0.375000 -0.312500 0.437500
v -0.375000 -0.312500 0.500000
v 0.375000 -0.312500 0.500000
v 0.375000 -0.312500 0.437500
v -0.437500 0.187500 0.437500
v 0.437500 0.187500 0.437500
v 0.500000 -0.500000 -0.500000
v 0.500000 -0.500000 -0.375000
v 0.375000 -0.500000 -0.375000
v 0.375000 -0.500000 -0.500000
v -0.375000 -0.500000 -0.500000
v -0.375000 -0.500000 -0.375000
v -0.500000 -0.500000 -0.375000
v -0.500000 -0.500000 -0.500000
v 0.375000 -0.437500 -0.500000
v 0.375000 -0.437500 -0.375000
v -0.375000 -0.437500 -0.375000
v -0.375000 -0.437500 -0.500000
v 0.375000 0.062500 -0.500000
v 0.375000 0.062500 -0.437500
v -0.375000 0.062500 -0.437500
v -0.375000 0.062500 -0.500000
v 0.500000 -0.437500 -0.375000
v 0.500000 -0.437500 0.375000
v 0.375000 -0.437500 0.375000
v -0.375000 -0.437500 0.375000
v -0.500000 -0.437500 0.375000
v -0.500000 -0.437500 -0.375000
v 0.375000 -0.375000 -0.375000
v 0.375000 -0.375000 -0.312500
v -0.375000 -0.375000 -0.312500
v -0.375000 -0.375000 -0.375000
v 0.500000 0.062500 -0.375000
v 0.500000 0.062500 0.375000
v 0.437500 0.062500 0.375000
v 0.437500 0.062500 -0.375000
v -0.437500 0.062500 -0.375000
v -0.437500 0.062500 0.375000
v -0.500000 0.062500 0.375000
v -0.500000 0.062500 -0.375000
v 0.312500 -0.437500 -0.312500
v 0.312500 -0.437500 0.125000
v -0.312500 -0.437500 0.125000
v -0.312500 -0.437500 -0.312500
v 0.375000 -0.375000 0.375000
v 0.312500 -0.375000 0.375000
v 0.312500 -0.375000 -0.312500
v -0.312500 -0.375000 -0.312500
v -0.312500 -0.375000 0.375000
v -0.375000 -0.375000 0.375000
v 0.062500 0.187500 -0.312500
v 0.062500 0.187500 -0.250000
v 0.000000 0.187500 -0.250000
v 0.000000 0.187500 -0.312500
v 0.062500 -0.500000 0.125000
v 0.062500 -0.500000 0.187500
v -0.062500 -0.500000 0.187500
v -0.062500 -0.500000 0.125000
v 0.312500 -0.437500 0.187500
v 0.062500 -0.437500 0.187500
v 0.062500 -0.437500 0.125000
v -0.062500 -0.437500 0.125000
v -0.062500 -0.437500 0.187500
v -0.312500 -0.437500 0.187500
v 0.125000 -0.500000 0.187500
v 0.125000 -0.500000 0.312500
v 0.062500 -0.500000 0.312500
v -0.062500 -0.500000 0.312500
v -0.125000 -0.500000 0.312500
v -0.125000 -0.500000 0.187500
v 0.312500 -0.437500 0.312500
v 0.125000 -0.437500 0.312500
v 0.125000 -0.437500 0.187500
v 0.062500 -0.437500 0.312500
v -0.062500 -0.437500 0.312500
v -0.125000 -0.437500 0.187500
v -0.125000 -0.437500 0.312500
v -0.312500 -0.437500 0.312500
v 0.062500 -0.500000 0.375000
v -0.062500 -0.500000 0.375000
v 0.312500 -0.375000 0.312500
v 0.062500 -0.375000 0.375000
v 0.062500 -0.375000 0.312500
v -0.062500 -0.375000 0.312500
v -0.062500 -0.375000 0.375000
v -0.312500 -0.375000 0.312500
v 0.500000 -0.500000 0.375000
v 0.500000 -0.500000 0.500000
v 0.375000 -0.500000 0.500000
v 0.375000 -0.500000 0.375000
v -0.375000 -0.500000 0.375000
v -0.375000 -0.500000 0.500000
v -0.500000 -0.500000 0.500000
v -0.500000 -0.500000 0.375000
v 0.375000 -0.437500 0.500000
v -0.375000 -0.437500 0.500000
v 0.375000 0.062500 0.437500
v 0.375000 0.062500 0.500000
v -0.375000 0.062500 0.500000
v -0.375000 0.062500 0.437500
v -0.500000 0.187500 -0.375000
v -0.437500 0.187500 -0.375000
v -0.500000 -0.437500 0.500000
v -0.500000 -0.312500 0.500000
v -0.500000 0.062500 0.500000
v -0.437500 0.187500 0.375000
v -0.125000 0.437500 -0.062500
v -0.125000 0.437500 -0.312500
v 0.500000 0.187500 -0.375000
v 0.437500 0.187500 -0.375000
v 0.500000 -0.312500 0.500000
v 0.500000 -0.437500 0.500000
v 0.500000 0.062500 0.500000
v 0.437500 0.187500 0.375000
v 0.125000 0.437500 -0.312500
v 0.125000 0.437500 -0.062500
v 0.375000 0.187500 -0.500000
v -0.375000 0.187500 -0.500000
v 0.375000 0.187500 -0.437500
v -0.375000 0.187500 -0.437500
v 0.062500 -0.437500 0.375000
v -0.062500 -0.437500 0.375000
v 0.375000 0.187500 0.437500
v -0.375000 0.187500 0.437500
v 0.375000 0.187500 0.500000
v -0.375000 0.187500 0.500000
vt 0.125000 0.000000
vt 0.125000 0.062500
vt 0.875000 0.062500
vt 0.875000 0.000000
vt 0.000000 0.000000
vt 0.000000 0.062500
vt 1.000000 0.062500
vt 1.000000 0.000000
vt 0.937500 0.062500
vt 0.937500 1.000000
vt 1.000000 1.000000
vt 0.000000 1.000000
vt 0.062500 1.000000
vt 0.062500 0.062500
vt 0.875000 0.062500
vt 0.875000 0.125000
vt 0.937500 0.125000
vt 0.937500 0.062500
vt 0.062500 0.062500
vt 0.062500 0.125000
vt 0.125000 0.125000
vt 0.125000 0.062500
vt 0.937500 0.125000
vt 0.937500 0.875000
vt 1.000000 0.875000
vt 1.000000 0.125000
vt 0.000000 0.125000
vt 0.000000 0.875000
vt 0.062500 0.875000
vt 0.062500 0.125000
vt 0.875000 0.875000
vt 0.875000 0.937500
vt 0.937500 0.937500
vt 0.937500 0.875000
vt 0.062500 0.875000
vt 0.062500 0.937500
vt 0.125000 0.937500
vt 0.125000 0.875000
vt 0.125000 0.937500
vt 0.125000 1.000000
vt 0.875000 1.000000
vt 0.875000 0.937500
vt 0.062500 0.937500
vt 0.937500 0.937500
vt 1.000000 0.000000
vt 1.000000 0.125000
vt 0.875000 0.125000
vt 0.875000 0.000000
vt 0.125000 0.000000
vt 0.125000 0.125000
vt 0.000000 0.125000
vt 0.000000 0.000000
vt 0.875000 0.000000
vt 0.875000 0.125000
vt 0.125000 0.125000
vt 0.125000 0.000000
vt 0.875000 0.000000
vt 0.875000 0.062500
vt 0.125000 0.062500
vt 0.125000 0.000000
vt 1.000000 0.125000
vt 1.000000 0.875000
vt 0.875000 0.875000
vt 0.125000 0.875000
vt 0.000000 0.875000
vt 0.000000 0.125000
vt 1.000000 0.125000
vt 1.000000 0.875000
vt 0.937500 0.875000
vt 0.937500 0.125000
vt 0.062500 0.125000
vt 0.062500 0.875000
vt 0.000000 0.875000
vt 0.000000 0.125000
vt 1.000000 0.875000
vt 1.000000 1.000000
vt 0.875000 1.000000
vt 0.875000 0.875000
vt 0.125000 0.875000
vt 0.125000 1.000000
vt 0.000000 1.000000
vt 0.000000 0.875000
vt 0.875000 1.000000
vt 0.125000 1.000000
vt 0.875000 0.937500
vt 0.875000 1.000000
vt 0.125000 1.000000
vt 0.125000 0.937500
vt 0.000000 0.000000
vt 0.000000 0.125000
vt 0.062500 0.125000
vt 0.062500 0.000000
vt 0.687500 0.125000
vt 0.687500 0.000000
vt 0.187500 0.000000
vt 0.187500 0.062500
vt 0.562500 0.062500
vt 0.562500 0.000000
vt 0.687500 0.062500
vt 0.687500 0.125000
vt 0.750000 0.125000
vt 0.750000 0.062500
vt 0.062500 0.875000
vt 0.125000 0.875000
vt 0.125000 0.125000
vt 0.062500 0.125000
vt 0.062500 1.000000
vt 0.187500 1.000000
vt 0.187500 0.125000
vt 0.562500 0.125000
vt 0.562500 1.000000
vt 0.687500 1.000000
vt 0.000000 0.875000
vt 0.000000 1.000000
vt 0.062500 1.000000
vt 0.062500 0.875000
vt 0.187500 0.875000
vt 0.562500 0.875000
vt 0.687500 0.875000
vt 0.687500 0.937500
vt 0.750000 0.937500
vt 0.750000 0.875000
vt 0.187500 0.937500
vt 0.187500 1.000000
vt 0.562500 1.000000
vt 0.562500 0.937500
vt 0.687500 0.000000
vt 0.687500 0.125000
vt 0.000000 0.125000
vt 0.000000 0.000000
vt 0.062500 0.000000
vt 0.062500 0.125000
vt 0.000000 0.125000
vt 0.000000 0.000000
vt 0.562500 0.000000
vt 0.562500 0.062500
vt 0.187500 0.062500
vt 0.187500 0.000000
vt 0.750000 0.062500
vt 0.750000 0.125000
vt 0.687500 0.125000
vt 0.687500 0.062500
vt 0.187500 0.125000
vt 0.187500 1.000000
vt 0.062500 1.000000
vt 0.062500 0.125000
vt 0.125000 0.125000
vt 0.125000 0.875000
vt 0.062500 0.875000
vt 0.687500 1.000000
vt 0.562500 1.000000
vt 0.562500 0.125000
vt 0.062500 0.875000
vt 0.000000 1.000000
vt 0.000000 0.875000
vt 0.062500 1.000000
vt 0.000000 1.000000
vt 0.000000 0.875000
vt 0.562500 0.875000
vt 0.187500 0.875000
vt 0.750000 0.875000
vt 0.750000 0.937500
vt 0.687500 0.937500
vt 0.687500 0.875000
vt 0.562500 0.937500
vt 0.562500 1.000000
vt 0.187500 1.000000
vt 0.187500 0.937500
vt 0.875000 0.687500
vt 1.000000 0.687500
vt 0.000000 0.687500
vt 0.125000 0.687500
vt 0.125000 0.062500
vt 0.125000 0.187500
vt 0.875000 0.187500
vt 0.875000 0.062500
vt 0.125000 0.562500
vt 0.875000 0.562500
vt 0.875000 0.687500
vt 0.875000 0.750000
vt 0.937500 0.750000
vt 0.937500 0.687500
vt 0.062500 0.687500
vt 0.062500 0.750000
vt 0.125000 0.750000
vt 0.125000 0.687500
vt 0.875000 0.000000
vt 0.875000 0.062500
vt 1.000000 0.062500
vt 1.000000 0.000000
vt 0.000000 0.000000
vt 0.000000 0.062500
vt 0.125000 0.062500
vt 0.125000 0.000000
vt 0.562500 0.062500
vt 0.562500 0.125000
vt 0.875000 0.125000
vt 0.125000 0.125000
vt 0.437500 0.125000
vt 0.437500 0.062500
vt 0.937500 0.187500
vt 0.937500 0.562500
vt 1.000000 0.562500
vt 1.000000 0.187500
vt 0.000000 0.187500
vt 0.000000 0.562500
vt 0.062500 0.562500
vt 0.062500 0.187500
vt 1.000000 0.000000
vt 1.000000 0.062500
vt 0.875000 0.062500
vt 0.875000 0.000000
vt 0.125000 0.000000
vt 0.125000 0.062500
vt 0.000000 0.062500
vt 0.000000 0.000000
vt 0.875000 0.125000
vt 1.000000 0.187500
vt 1.000000 0.562500
vt 0.937500 0.562500
vt 0.937500 0.187500
vt 0.062500 0.187500
vt 0.062500 0.562500
vt 0.000000 0.562500
vt 0.000000 0.187500
vt 0.937500 0.687500
vt 0.937500 0.750000
vt 0.875000 0.750000
vt 0.875000 0.687500
vt 0.125000 0.687500
vt 0.125000 0.750000
vt 0.062500 0.750000
vt 0.062500 0.687500
vt 1.000000 0.000000
vt 1.000000 0.687500
vt 0.875000 0.687500
vt 0.875000 0.000000
vt 0.125000 0.000000
vt 0.125000 0.687500
vt 0.000000 0.687500
vt 0.000000 0.000000
vt 0.875000 0.062500
vt 0.875000 0.187500
vt 0.125000 0.187500
vt 0.125000 0.062500
vt 0.875000 0.562500
vt 0.125000 0.562500
vt 0.125000 0.125000
vt 0.125000 0.187500
vt 0.875000 0.187500
vt 0.875000 0.125000
vt 0.500000 0.187500
vt 0.500000 0.250000
vt 0.562500 0.250000
vt 0.562500 0.187500
vt 0.812500 0.187500
vt 0.812500 0.875000
vt 0.875000 0.875000
vt 0.125000 0.875000
vt 0.187500 0.875000
vt 0.187500 0.187500
vt 0.625000 0.187500
vt 0.625000 0.812500
vt 0.812500 0.812500
vt 0.812500 0.187500
vt 0.187500 0.187500
vt 0.187500 0.812500
vt 0.375000 0.812500
vt 0.375000 0.187500
vt 0.375000 0.437500
vt 0.625000 0.437500
vt 0.187500 0.812500
vt 0.812500 0.812500
vt 0.875000 0.187500
vt 0.125000 0.187500
vt 0.812500 0.187500
vt 0.812500 0.625000
vt 0.187500 0.625000
vt 0.187500 0.187500
vt 0.875000 0.875000
vt 0.812500 0.875000
vt 0.812500 0.187500
vt 0.187500 0.187500
vt 0.187500 0.875000
vt 0.562500 0.187500
vt 0.562500 0.250000
vt 0.500000 0.250000
vt 0.500000 0.187500
vt 0.812500 0.687500
vt 0.562500 0.687500
vt 0.562500 0.625000
vt 0.437500 0.625000
vt 0.437500 0.687500
vt 0.187500 0.687500
vt 0.812500 0.812500
vt 0.625000 0.812500
vt 0.625000 0.687500
vt 0.375000 0.687500
vt 0.375000 0.812500
vt 0.187500 0.812500
vt 0.812500 0.812500
vt 0.562500 0.875000
vt 0.562500 0.812500
vt 0.437500 0.812500
vt 0.437500 0.875000
vt 0.187500 0.812500
vt 0.187500 0.125000
vt 0.187500 0.875000
vt 0.562500 0.875000
vt 0.562500 0.125000
vt 0.750000 0.125000
vt 0.750000 0.875000
vt 0.812500 0.875000
vt 0.812500 0.125000
vt 0.062500 0.187500
vt 0.062500 0.812500
vt 0.125000 0.812500
vt 0.125000 0.187500
vt 0.625000 0.187500
vt 0.625000 0.250000
vt 0.687500 0.250000
vt 0.687500 0.187500
vt 0.812500 0.187500
vt 0.812500 0.812500
vt 0.875000 0.812500
vt 0.875000 0.187500
vt 0.875000 0.187500
vt 0.875000 0.437500
vt 0.937500 0.437500
vt 0.937500 0.187500
vt 0.562500 0.125000
vt 0.562500 0.875000
vt 0.187500 0.875000
vt 0.187500 0.125000
vt 0.812500 0.125000
vt 0.812500 0.875000
vt 0.750000 0.875000
vt 0.750000 0.125000
vt 0.125000 0.187500
vt 0.125000 0.812500
vt 0.062500 0.812500
vt 0.062500 0.187500
vt 0.687500 0.187500
vt 0.687500 0.250000
vt 0.625000 0.250000
vt 0.625000 0.187500
vt 0.875000 0.187500
vt 0.875000 0.812500
vt 0.937500 0.187500
vt 0.937500 0.437500
vt 0.875000 0.437500
vt 0.875000 0.187500
vt 0.125000 0.187500
vt 0.125000 0.562500
vt 0.875000 0.562500
vt 0.875000 0.187500
vt 0.125000 0.750000
vt 0.125000 0.812500
vt 0.875000 0.812500
vt 0.875000 0.750000
vt 0.187500 0.062500
vt 0.187500 0.125000
vt 0.812500 0.125000
vt 0.812500 0.062500
vt 0.187500 0.812500
vt 0.187500 0.875000
vt 0.812500 0.875000
vt 0.812500 0.812500
vt 0.375000 0.875000
vt 0.375000 0.937500
vt 0.625000 0.937500
vt 0.625000 0.875000
vt 0.500000 0.625000
vt 0.500000 0.687500
vt 0.562500 0.687500
vt 0.562500 0.625000
vt 0.562500 0.625000
vt 0.562500 0.687500
vt 0.500000 0.687500
vt 0.500000 0.625000
vt 0.625000 0.875000
vt 0.625000 0.937500
vt 0.375000 0.937500
vt 0.375000 0.875000
vt 0.812500 0.062500
vt 0.812500 0.125000
vt 0.562500 0.125000
vt 0.562500 0.062500
vt 0.437500 0.062500
vt 0.437500 0.125000
vt 0.187500 0.125000
vt 0.187500 0.062500
vt 0.812500 0.875000
vt 0.187500 0.875000
vt 0.875000 0.750000
vt 0.875000 0.812500
vt 0.125000 0.812500
vt 0.125000 0.750000
vt 0.875000 0.187500
vt 0.875000 0.562500
vt 0.125000 0.562500
vt 0.125000 0.187500
vt 0.375000 0.187500
vt 0.375000 0.437500
vt 0.625000 0.437500
vt 0.625000 0.187500
vt 1.000000 0.437500
vt 1.000000 0.187500
vt 1.000000 0.187500
vt 1.000000 0.437500
vt 0.375000 1.000000
vt 0.625000 1.000000
vt 0.625000 1.000000
vt 0.375000 1.000000
vt 0.562500 0.625000
vt 0.562500 0.687500
vt 0.437500 0.687500
vt 0.437500 0.625000
vt 0.625000 0.687500
vt 0.625000 0.812500
vt 0.562500 0.812500
vt 0.437500 0.812500
vt 0.375000 0.812500
vt 0.375000 0.687500
vt 0.562500 0.812500
vt 0.437500 0.812500
vt 0.562500 0.875000
vt 0.437500 0.875000
vt 0.000000 0.625000
vt 0.000000 0.687500
vt 0.062500 0.687500
vt 0.062500 0.625000
vt 0.000000 0.687500
vt 0.000000 0.812500
vt 0.062500 0.812500
vt 0.062500 0.687500
vt 0.000000 0.687500
vt 0.000000 0.812500
vt 0.062500 0.812500
vt 0.062500 0.687500
vt 0.000000 0.812500
vt 0.000000 0.875000
vt 0.125000 0.875000
vt 0.125000 0.812500
vt 0.062500 0.625000
vt 0.000000 0.625000
vt 0.062500 0.687500
vt 0.062500 0.812500
vt 0.000000 0.812500
vt 0.000000 0.687500
vt 0.062500 0.812500
vt 0.125000 0.812500
vt 0.125000 0.875000
vt 0.000000 0.875000
vt 0.437500 0.000000
vt 0.437500 0.062500
vt 0.562500 0.062500
vt 0.562500 0.000000
vt 0.562500 0.000000
vt 0.562500 0.062500
vt 0.625000 0.062500
vt 0.625000 0.000000
vt 0.375000 0.000000
vt 0.375000 0.062500
vt 0.437500 0.062500
vt 0.437500 0.000000
vt 0.437500 0.000000
vt 0.562500 0.000000
vt 0.625000 0.000000
vt 0.625000 0.062500
vt 0.375000 0.062500
vt 0.375000 0.000000
vt 0.562500 0.000000
vt 0.437500 0.000000
vn 0.0000 1.0000 0.0000
vn 0.0000 -1.0000 0.0000
vn -1.0000 0.0000 0.0000
vn 1.0000 0.0000 0.0000
vn 0.0000 0.0000 -1.0000
vn 0.0000 0.0000 1.0000
g node_0_0_0.010_node_0_0_0.010_wool:grey.009
usemtl wool:grey.009
s 1
f 1/1/1 2/2/1 3/3/1 4/4/1
f 5/5/1 6/6/1 7/7/1 8/8/1
f 9/9/1 10/10/1 11/11/1 7/7/1
f 6/6/1 12/12/1 13/13/1 14/14/1
f 15/15/1 16/16/1 17/17/1 18/18/1
f 21/19/1 22/20/1 20/21/1 19/22/1
f 23/23/1 24/24/1 25/25/1 26/26/1
f 27/27/1 28/28/1 29/29/1 30/30/1
f 31/31/1 65/32/1 66/33/1 32/34/1
f 33/35/1 68/36/1 67/37/1 34/38/1
f 69/39/1 70/40/1 71/41/1 72/42/1
f 73/43/1 13/13/1 10/10/1 74/44/1
f 75/45/2 76/46/2 77/47/2 78/48/2
f 79/49/2 80/50/2 81/51/2 82/52/2
f 83/53/2 84/54/2 85/55/2 86/56/2
f 87/57/2 88/58/2 89/59/2 90/60/2
f 91/61/2 92/62/2 93/63/2 84/54/2
f 85/55/2 94/64/2 95/65/2 96/66/2
f 101/67/2 102/68/2 103/69/2 104/70/2
f 105/71/2 106/72/2 107/73/2 108/74/2
f 155/75/2 156/76/2 157/77/2 158/78/2
f 159/79/2 160/80/2 161/81/2 162/82/2
f 93/63/2 163/83/2 164/84/2 94/64/2
f 165/85/2 166/86/2 167/87/2 168/88/2
f 78/89/3 77/90/3 84/91/3 83/92/3
f 82/52/3 81/51/3 169/93/3 5/94/3
f 4/95/3 3/96/3 88/97/3 87/98/3
f 14/99/3 170/100/3 22/101/3 21/102/3
f 84/91/3 93/103/3 113/104/3 97/105/3
f 96/106/3 171/107/3 172/108/3 27/109/3
f 108/110/3 173/111/3 12/112/3 169/93/3
f 158/113/3 157/114/3 163/115/3 93/103/3
f 162/82/3 161/81/3 171/107/3 95/116/3
f 28/117/3 172/108/3 173/111/3 107/118/3
f 174/119/3 73/120/3 68/121/3 33/122/3
f 72/123/3 71/124/3 166/125/3 165/126/3
f 8/127/4 177/128/4 76/129/4 75/130/4
f 86/131/4 85/132/4 80/133/4 79/134/4
f 90/135/4 89/136/4 2/137/4 1/138/4
f 18/139/4 17/140/4 178/141/4 9/142/4
f 26/143/4 179/144/4 180/145/4 91/146/4
f 100/147/4 118/148/4 94/149/4 85/132/4
f 177/128/4 11/150/4 181/151/4 101/152/4
f 92/153/4 180/145/4 156/154/4 155/155/4
f 94/149/4 164/156/4 160/157/4 159/158/4
f 102/159/4 181/151/4 179/144/4 25/160/4
f 32/161/4 66/162/4 74/163/4 182/164/4
f 168/165/4 167/166/4 70/167/4 69/168/4
f 78/48/5 185/169/5 8/170/5 75/45/5
f 82/52/5 5/171/5 186/172/5 79/49/5
f 86/173/5 1/174/5 4/175/5 83/176/5
f 90/177/5 186/172/5 185/169/5 87/178/5
f 187/179/5 15/180/5 18/181/5 9/182/5
f 14/183/5 21/184/5 19/185/5 188/186/5
f 158/187/5 93/188/5 92/189/5 155/190/5
f 162/191/5 95/192/5 94/193/5 159/194/5
f 189/195/5 150/196/5 113/197/5 93/188/5
f 94/193/5 118/198/5 153/199/5 190/200/5
f 24/201/5 103/202/5 102/203/5 25/204/5
f 28/205/5 107/206/5 106/207/5 29/208/5
f 76/209/6 91/210/6 84/211/6 77/212/6
f 80/213/6 85/214/6 96/215/6 81/216/6
f 84/211/6 97/217/6 100/147/6 85/214/6
f 26/218/6 101/219/6 104/220/6 23/221/6
f 30/222/6 105/223/6 108/224/6 27/225/6
f 74/226/6 66/227/6 65/228/6 191/229/6
f 192/230/6 67/231/6 68/232/6 73/233/6
f 156/234/6 11/235/6 193/236/6 157/237/6
f 160/238/6 194/239/6 12/240/6 161/241/6
f 163/242/6 71/243/6 70/244/6 164/245/6
f 166/246/6 193/236/6 194/239/6 167/247/6
g node_0_0_0.010_node_0_0_0.010_default:steelblock.004
usemtl default:steelblock.004
f 19/22/1 20/21/1 16/16/1 15/15/1
f 16/16/1 31/31/1 32/34/1 17/17/1
f 22/20/1 33/35/1 34/38/1 20/21/1
f 35/248/1 36/249/1 37/250/1 38/251/1
f 39/252/1 40/253/1 41/254/1 42/255/1
f 43/256/1 44/257/1 45/258/1 37/250/1
f 36/249/1 46/259/1 47/260/1 48/261/1
f 49/262/1 50/263/1 51/264/1 52/265/1
f 53/266/1 54/267/1 55/268/1 56/269/1
f 61/270/1 55/268/1 50/263/1 62/271/1
f 63/272/1 47/260/1 44/257/1 64/273/1
f 34/38/1 67/37/1 65/32/1 31/31/1
f 97/217/2 98/274/2 99/275/2 100/147/2
f 109/276/2 110/277/2 111/278/2 112/279/2
f 98/274/2 113/280/2 114/281/2 115/282/2
f 116/283/2 117/284/2 118/148/2 99/275/2
f 119/285/2 120/286/2 121/287/2 122/288/2
f 110/277/2 127/289/2 128/290/2 129/291/2
f 130/292/2 131/293/2 132/294/2 111/278/2
f 127/289/2 139/295/2 140/296/2 141/297/2
f 144/298/2 145/299/2 146/300/2 132/294/2
f 149/301/2 114/281/2 150/302/2 151/303/2
f 152/304/2 153/305/2 117/284/2 154/306/2
f 30/307/3 29/308/3 106/309/3 105/310/3
f 170/100/3 174/119/3 33/122/3 22/101/3
f 20/311/3 34/312/3 46/313/3 35/314/3
f 112/315/3 146/316/3 154/317/3 116/318/3
f 42/319/3 41/320/3 120/321/3 119/322/3
f 48/323/3 63/324/3 54/325/3 53/326/3
f 56/327/3 61/328/3 175/329/3 176/330/3
f 104/331/4 103/332/4 24/333/4 23/334/4
f 17/140/4 32/161/4 182/164/4 178/141/4
f 38/335/4 45/336/4 31/337/4 16/338/4
f 115/339/4 149/340/4 139/341/4 109/342/4
f 122/343/4 121/344/4 40/345/4 39/346/4
f 52/347/4 51/348/4 64/273/4 43/256/4
f 183/349/4 184/350/4 62/351/4 49/352/4
f 2/353/5 89/354/5 88/355/5 3/356/5
f 188/186/5 19/185/5 15/180/5 187/179/5
f 20/357/5 35/358/5 38/359/5 16/360/5
f 112/361/5 116/362/5 115/363/5 109/364/5
f 48/365/5 53/366/5 52/367/5 43/368/5
f 56/369/5 176/370/5 183/371/5 49/372/5
f 40/373/5 121/374/5 120/375/5 41/376/5
f 42/377/6 119/378/6 122/379/6 39/380/6
f 62/381/6 184/382/6 175/383/6 61/384/6
f 139/385/6 149/386/6 151/387/6 142/388/6
f 143/389/6 152/390/6 154/391/6 146/392/6
f 64/273/6 51/393/6 54/394/6 63/272/6
f 31/395/6 45/396/6 46/397/6 34/398/6
f 72/399/6 165/400/6 168/401/6 69/402/6
f 191/229/6 65/228/6 67/231/6 192/230/6
g node_0_0_0.010_node_0_0_0.010_wool:black.001
usemtl wool:black.001
f 57/403/1 58/404/1 59/405/1 60/406/1
f 176/330/3 175/329/3 58/407/3 57/408/3
f 60/409/4 59/410/4 184/350/4 183/349/4
f 176/370/5 57/411/5 60/412/5 183/371/5
f 184/382/6 59/413/6 58/414/6 175/383/6
g node_0_0_0.010_node_0_0_0.010_wool:green.001
usemtl wool:green.001
f 123/415/2 124/416/2 125/417/2 126/418/2
f 133/419/2 134/420/2 135/421/2 124/416/2
f 125/417/2 136/422/2 137/423/2 138/424/2
f 128/290/2 142/425/2 143/426/2 131/293/2
f 135/421/2 147/427/2 148/428/2 136/422/2
f 126/429/3 125/430/3 131/431/3 130/432/3
f 124/433/3 135/434/3 142/435/3 128/436/3
f 138/437/3 137/438/3 145/439/3 144/440/3
f 136/441/3 148/442/3 153/443/3 152/444/3
f 129/445/4 128/436/4 124/433/4 123/446/4
f 141/447/4 140/448/4 134/449/4 133/450/4
f 131/431/4 143/451/4 136/441/4 125/430/4
f 151/452/4 150/453/4 147/454/4 135/434/4
f 126/455/5 130/456/5 129/457/5 123/458/5
f 124/459/5 128/460/5 141/461/5 133/462/5
f 138/463/5 144/464/5 131/465/5 125/466/5
f 136/467/5 143/389/5 142/388/5 135/468/5
f 124/459/6 128/460/6 131/465/6 125/466/6
f 134/469/6 140/470/6 142/388/6 135/468/6
f 136/467/6 143/389/6 145/471/6 137/472/6
f 147/473/6 189/195/6 190/200/6 148/474/6
