# Blender v3.0.0 OBJ File: ''
# www.blender.org
mtllib power_generators_shaft_ver.mtl
o node_0_0_0.021
v 0.375000 0.500000 -0.500000
v 0.375000 0.500000 -0.375000
v 0.500000 0.500000 -0.375000
v 0.500000 0.500000 -0.500000
v -0.500000 0.500000 -0.500000
v -0.500000 0.500000 -0.375000
v -0.375000 0.500000 -0.375000
v -0.375000 0.500000 -0.500000
v 0.125000 -0.062500 -0.437500
v 0.125000 -0.062500 -0.375000
v 0.375000 -0.062500 -0.375000
v 0.375000 -0.062500 -0.437500
v -0.062500 -0.062500 -0.437500
v -0.062500 -0.062500 -0.375000
v 0.062500 -0.062500 -0.375000
v 0.062500 -0.062500 -0.437500
v -0.375000 -0.062500 -0.437500
v -0.375000 -0.062500 -0.375000
v -0.125000 -0.062500 -0.375000
v -0.125000 -0.062500 -0.437500
v -0.375000 0.125000 -0.437500
v -0.375000 0.125000 -0.375000
v 0.375000 0.125000 -0.375000
v 0.375000 0.125000 -0.437500
v 0.375000 0.125000 0.375000
v 0.437500 0.125000 0.375000
v 0.437500 0.125000 -0.375000
v -0.437500 0.125000 -0.375000
v -0.437500 0.125000 0.375000
v -0.375000 0.125000 0.375000
v 0.375000 -0.062500 -0.312500
v 0.375000 -0.062500 -0.125000
v 0.437500 -0.062500 -0.125000
v 0.437500 -0.062500 -0.312500
v -0.437500 -0.062500 -0.312500
v -0.437500 -0.062500 -0.125000
v -0.375000 -0.062500 -0.125000
v -0.375000 -0.062500 -0.312500
v 0.375000 -0.062500 -0.062500
v 0.375000 -0.062500 0.062500
v 0.437500 -0.062500 0.062500
v 0.437500 -0.062500 -0.062500
v -0.437500 -0.062500 -0.062500
v -0.437500 -0.062500 0.062500
v -0.375000 -0.062500 0.062500
v -0.375000 -0.062500 -0.062500
v -0.062500 0.500000 -0.062500
v -0.062500 0.500000 0.062500
v 0.062500 0.500000 0.062500
v 0.062500 0.500000 -0.062500
v 0.375000 -0.062500 0.125000
v 0.375000 -0.062500 0.312500
v 0.437500 -0.062500 0.312500
v 0.437500 -0.062500 0.125000
v -0.437500 -0.062500 0.125000
v -0.437500 -0.062500 0.312500
v -0.375000 -0.062500 0.312500
v -0.375000 -0.062500 0.125000
v 0.125000 -0.062500 0.375000
v 0.125000 -0.062500 0.437500
v 0.312500 -0.062500 0.437500
v 0.312500 -0.062500 0.375000
v -0.062500 -0.062500 0.375000
v -0.062500 -0.062500 0.437500
v 0.062500 -0.062500 0.437500
v 0.062500 -0.062500 0.375000
v -0.312500 -0.062500 0.375000
v -0.312500 -0.062500 0.437500
v -0.125000 -0.062500 0.437500
v -0.125000 -0.062500 0.375000
v -0.375000 0.125000 0.437500
v 0.375000 0.125000 0.437500
v 0.375000 0.500000 0.375000
v 0.375000 0.500000 0.500000
v 0.500000 0.500000 0.500000
v 0.500000 0.500000 0.375000
v -0.500000 0.500000 0.375000
v -0.500000 0.500000 0.500000
v -0.375000 0.500000 0.500000
v -0.375000 0.500000 0.375000
v 0.500000 -0.500000 -0.500000
v 0.500000 -0.500000 -0.375000
v 0.375000 -0.500000 -0.375000
v 0.375000 -0.500000 -0.500000
v -0.375000 -0.500000 -0.500000
v -0.375000 -0.500000 -0.375000
v -0.500000 -0.500000 -0.375000
v -0.500000 -0.500000 -0.500000
v 0.375000 -0.125000 -0.437500
v 0.375000 -0.125000 -0.375000
v -0.375000 -0.125000 -0.375000
v -0.375000 -0.125000 -0.437500
v 0.375000 0.062500 -0.437500
v 0.375000 0.062500 -0.375000
v 0.125000 0.062500 -0.375000
v 0.125000 0.062500 -0.437500
v 0.062500 0.062500 -0.437500
v 0.062500 0.062500 -0.375000
v -0.062500 0.062500 -0.375000
v -0.062500 0.062500 -0.437500
v -0.125000 0.062500 -0.437500
v -0.125000 0.062500 -0.375000
v -0.375000 0.062500 -0.375000
v -0.375000 0.062500 -0.437500
v 0.437500 -0.125000 -0.375000
v 0.437500 -0.125000 0.375000
v 0.375000 -0.125000 0.375000
v -0.375000 -0.125000 0.375000
v -0.437500 -0.125000 0.375000
v -0.437500 -0.125000 -0.375000
v 0.437500 0.062500 -0.312500
v 0.437500 0.062500 -0.125000
v 0.375000 0.062500 -0.125000
v 0.375000 0.062500 -0.312500
v -0.375000 0.062500 -0.312500
v -0.375000 0.062500 -0.125000
v -0.437500 0.062500 -0.125000
v -0.437500 0.062500 -0.312500
v 0.062500 -0.500000 -0.062500
v 0.062500 -0.500000 0.062500
v -0.062500 -0.500000 0.062500
v -0.062500 -0.500000 -0.062500
v 0.437500 0.062500 -0.062500
v 0.437500 0.062500 0.062500
v 0.375000 0.062500 0.062500
v 0.375000 0.062500 -0.062500
v -0.375000 0.062500 -0.062500
v -0.375000 0.062500 0.062500
v -0.437500 0.062500 0.062500
v -0.437500 0.062500 -0.062500
v 0.437500 0.062500 0.125000
v 0.437500 0.062500 0.312500
v 0.375000 0.062500 0.312500
v 0.375000 0.062500 0.125000
v -0.375000 0.062500 0.125000
v -0.375000 0.062500 0.312500
v -0.437500 0.062500 0.312500
v -0.437500 0.062500 0.125000
v 0.500000 -0.500000 0.375000
v 0.500000 -0.500000 0.500000
v 0.375000 -0.500000 0.500000
v 0.375000 -0.500000 0.375000
v -0.375000 -0.500000 0.375000
v -0.375000 -0.500000 0.500000
v -0.500000 -0.500000 0.500000
v -0.500000 -0.500000 0.375000
v 0.375000 -0.125000 0.437500
v -0.375000 -0.125000 0.437500
v 0.312500 0.062500 0.375000
v 0.312500 0.062500 0.437500
v 0.125000 0.062500 0.437500
v 0.125000 0.062500 0.375000
v 0.062500 0.062500 0.375000
v 0.062500 0.062500 0.437500
v -0.062500 0.062500 0.437500
v -0.062500 0.062500 0.375000
v -0.125000 0.062500 0.375000
v -0.125000 0.062500 0.437500
v -0.312500 0.062500 0.437500
v -0.312500 0.062500 0.375000
v 0.375000 -0.500000 -0.437500
v 0.375000 0.500000 -0.437500
v 0.375000 -0.062500 0.375000
v -0.437500 -0.125000 -0.312500
v -0.437500 0.125000 -0.312500
v 0.375000 0.062500 0.375000
v -0.437500 -0.062500 0.375000
v -0.437500 0.062500 0.375000
v 0.375000 -0.125000 0.500000
v 0.375000 0.125000 0.500000
v -0.375000 0.500000 -0.437500
v -0.375000 -0.500000 -0.437500
v 0.437500 0.125000 -0.312500
v 0.437500 -0.125000 -0.312500
v -0.375000 -0.062500 0.375000
v -0.375000 0.062500 0.375000
v 0.437500 -0.062500 0.375000
v 0.437500 0.062500 0.375000
v -0.375000 -0.125000 0.500000
v -0.375000 0.125000 0.500000
v 0.062500 0.125000 -0.437500
v 0.125000 0.125000 -0.437500
v -0.125000 0.125000 -0.437500
v -0.062500 0.125000 -0.437500
v 0.500000 -0.125000 0.375000
v -0.500000 -0.125000 0.375000
v 0.437500 0.500000 0.375000
v -0.437500 0.500000 0.375000
v 0.312500 0.125000 0.375000
v 0.062500 0.125000 0.375000
v 0.125000 0.125000 0.375000
v -0.125000 0.125000 0.375000
v -0.062500 0.125000 0.375000
v -0.312500 0.125000 0.375000
v 0.500000 -0.125000 -0.375000
v -0.500000 -0.125000 -0.375000
v 0.437500 0.500000 -0.375000
v -0.437500 0.500000 -0.375000
v 0.125000 0.125000 -0.375000
v 0.062500 0.125000 -0.375000
v -0.062500 0.125000 -0.375000
v -0.125000 0.125000 -0.375000
v 0.375000 -0.062500 0.437500
v -0.375000 -0.062500 0.437500
v 0.312500 0.125000 0.437500
v 0.125000 0.125000 0.437500
v 0.062500 0.125000 0.437500
v -0.062500 0.125000 0.437500
v -0.125000 0.125000 0.437500
v -0.312500 0.125000 0.437500
vt 0.875000 0.000000
vt 0.875000 0.125000
vt 1.000000 0.125000
vt 1.000000 0.000000
vt 0.000000 0.000000
vt 0.000000 0.125000
vt 0.125000 0.125000
vt 0.125000 0.000000
vt 0.625000 0.062500
vt 0.625000 0.125000
vt 0.875000 0.125000
vt 0.875000 0.062500
vt 0.437500 0.062500
vt 0.437500 0.125000
vt 0.562500 0.125000
vt 0.562500 0.062500
vt 0.125000 0.062500
vt 0.125000 0.125000
vt 0.375000 0.125000
vt 0.375000 0.062500
vt 0.125000 0.062500
vt 0.125000 0.125000
vt 0.875000 0.125000
vt 0.875000 0.062500
vt 0.875000 0.875000
vt 0.937500 0.875000
vt 0.937500 0.125000
vt 0.062500 0.125000
vt 0.062500 0.875000
vt 0.125000 0.875000
vt 0.875000 0.187500
vt 0.875000 0.375000
vt 0.937500 0.375000
vt 0.937500 0.187500
vt 0.062500 0.187500
vt 0.062500 0.375000
vt 0.125000 0.375000
vt 0.125000 0.187500
vt 0.875000 0.437500
vt 0.875000 0.562500
vt 0.937500 0.562500
vt 0.937500 0.437500
vt 0.062500 0.437500
vt 0.062500 0.562500
vt 0.125000 0.562500
vt 0.125000 0.437500
vt 0.875000 0.625000
vt 0.875000 0.812500
vt 0.937500 0.812500
vt 0.937500 0.625000
vt 0.062500 0.625000
vt 0.062500 0.812500
vt 0.125000 0.812500
vt 0.125000 0.625000
vt 0.625000 0.875000
vt 0.625000 0.937500
vt 0.812500 0.937500
vt 0.812500 0.875000
vt 0.437500 0.875000
vt 0.437500 0.937500
vt 0.562500 0.937500
vt 0.562500 0.875000
vt 0.187500 0.875000
vt 0.187500 0.937500
vt 0.375000 0.937500
vt 0.375000 0.875000
vt 0.125000 0.937500
vt 0.875000 0.937500
vt 0.875000 0.875000
vt 0.875000 1.000000
vt 1.000000 1.000000
vt 1.000000 0.875000
vt 0.000000 0.875000
vt 0.000000 1.000000
vt 0.125000 1.000000
vt 0.125000 0.875000
vt 1.000000 0.000000
vt 1.000000 0.125000
vt 0.875000 0.125000
vt 0.875000 0.000000
vt 0.125000 0.000000
vt 0.125000 0.125000
vt 0.000000 0.125000
vt 0.000000 0.000000
vt 0.875000 0.062500
vt 0.875000 0.125000
vt 0.125000 0.125000
vt 0.125000 0.062500
vt 0.875000 0.062500
vt 0.875000 0.125000
vt 0.625000 0.125000
vt 0.625000 0.062500
vt 0.562500 0.062500
vt 0.562500 0.125000
vt 0.437500 0.125000
vt 0.437500 0.062500
vt 0.375000 0.062500
vt 0.375000 0.125000
vt 0.125000 0.125000
vt 0.125000 0.062500
vt 0.937500 0.125000
vt 0.937500 0.875000
vt 0.875000 0.875000
vt 0.125000 0.875000
vt 0.062500 0.875000
vt 0.062500 0.125000
vt 0.937500 0.187500
vt 0.937500 0.375000
vt 0.875000 0.375000
vt 0.875000 0.187500
vt 0.125000 0.187500
vt 0.125000 0.375000
vt 0.062500 0.375000
vt 0.062500 0.187500
vt 0.937500 0.437500
vt 0.937500 0.562500
vt 0.875000 0.562500
vt 0.875000 0.437500
vt 0.125000 0.437500
vt 0.125000 0.562500
vt 0.062500 0.562500
vt 0.062500 0.437500
vt 0.937500 0.625000
vt 0.937500 0.812500
vt 0.875000 0.812500
vt 0.875000 0.625000
vt 0.125000 0.625000
vt 0.125000 0.812500
vt 0.062500 0.812500
vt 0.062500 0.625000
vt 1.000000 0.875000
vt 1.000000 1.000000
vt 0.875000 1.000000
vt 0.875000 0.875000
vt 0.125000 0.875000
vt 0.125000 1.000000
vt 0.000000 1.000000
vt 0.000000 0.875000
vt 0.875000 0.937500
vt 0.125000 0.937500
vt 0.812500 0.875000
vt 0.812500 0.937500
vt 0.625000 0.937500
vt 0.625000 0.875000
vt 0.562500 0.875000
vt 0.562500 0.937500
vt 0.437500 0.937500
vt 0.437500 0.875000
vt 0.375000 0.875000
vt 0.375000 0.937500
vt 0.187500 0.937500
vt 0.187500 0.875000
vt 0.000000 0.000000
vt 0.000000 0.062500
vt 1.000000 0.062500
vt 1.000000 0.000000
vt 1.000000 0.125000
vt 1.000000 0.000000
vt 0.000000 0.125000
vt 0.375000 0.125000
vt 0.375000 0.062500
vt 0.437500 0.062500
vt 0.437500 0.187500
vt 0.562500 0.187500
vt 0.562500 0.062500
vt 0.437500 0.062500
vt 0.437500 0.125000
vt 0.437500 0.062500
vt 0.437500 0.125000
vt 0.562500 0.125000
vt 0.562500 0.062500
vt 0.625000 0.062500
vt 0.625000 0.125000
vt 1.000000 0.125000
vt 0.375000 0.875000
vt 0.437500 0.875000
vt 0.437500 0.125000
vt 0.375000 0.125000
vt 0.375000 0.187500
vt 0.625000 0.187500
vt 0.625000 0.125000
vt 0.562500 0.125000
vt 0.562500 0.875000
vt 0.625000 0.875000
vt 0.375000 0.875000
vt 0.437500 0.875000
vt 0.437500 0.187500
vt 0.562500 0.187500
vt 0.562500 0.875000
vt 0.625000 0.875000
vt 0.437500 0.375000
vt 0.437500 0.437500
vt 0.562500 0.437500
vt 0.562500 0.375000
vt 0.437500 0.375000
vt 0.437500 0.437500
vt 0.562500 0.437500
vt 0.562500 0.375000
vt 0.437500 0.562500
vt 0.437500 0.625000
vt 0.562500 0.625000
vt 0.562500 0.562500
vt 0.437500 0.562500
vt 0.437500 0.625000
vt 0.562500 0.625000
vt 0.562500 0.562500
vt 0.437500 0.812500
vt 0.562500 0.812500
vt 0.437500 0.812500
vt 0.562500 0.812500
vt 0.000000 0.875000
vt 0.000000 1.000000
vt 0.375000 1.000000
vt 1.000000 1.000000
vt 1.000000 0.875000
vt 0.437500 0.875000
vt 0.437500 0.937500
vt 0.562500 0.937500
vt 0.562500 0.875000
vt 0.437500 0.875000
vt 0.437500 0.937500
vt 0.437500 0.875000
vt 0.437500 0.937500
vt 0.562500 0.937500
vt 0.562500 0.875000
vt 0.625000 1.000000
vt 1.000000 1.000000
vt 1.000000 0.875000
vt 0.375000 0.937500
vt 0.625000 0.937500
vt 0.000000 0.125000
vt 0.000000 0.000000
vt 1.000000 0.000000
vt 1.000000 0.062500
vt 0.000000 0.062500
vt 0.000000 0.000000
vt 0.375000 0.062500
vt 0.375000 0.125000
vt 0.000000 0.125000
vt 0.562500 0.062500
vt 0.562500 0.125000
vt 0.437500 0.125000
vt 0.437500 0.062500
vt 0.562500 0.062500
vt 0.562500 0.125000
vt 0.562500 0.062500
vt 0.562500 0.187500
vt 0.437500 0.187500
vt 0.437500 0.062500
vt 1.000000 0.125000
vt 0.625000 0.125000
vt 0.625000 0.062500
vt 0.625000 0.125000
vt 0.625000 0.187500
vt 0.375000 0.187500
vt 0.375000 0.125000
vt 0.437500 0.125000
vt 0.437500 0.875000
vt 0.375000 0.875000
vt 0.625000 0.875000
vt 0.562500 0.875000
vt 0.562500 0.125000
vt 0.437500 0.187500
vt 0.437500 0.875000
vt 0.375000 0.875000
vt 0.625000 0.875000
vt 0.562500 0.875000
vt 0.562500 0.187500
vt 0.562500 0.375000
vt 0.562500 0.437500
vt 0.437500 0.437500
vt 0.437500 0.375000
vt 0.562500 0.375000
vt 0.562500 0.437500
vt 0.437500 0.437500
vt 0.437500 0.375000
vt 0.562500 0.562500
vt 0.562500 0.625000
vt 0.437500 0.625000
vt 0.437500 0.562500
vt 0.562500 0.562500
vt 0.562500 0.625000
vt 0.437500 0.625000
vt 0.437500 0.562500
vt 0.562500 0.812500
vt 0.437500 0.812500
vt 0.562500 0.812500
vt 0.437500 0.812500
vt 0.000000 1.000000
vt 0.000000 0.875000
vt 0.375000 1.000000
vt 0.000000 1.000000
vt 0.000000 0.875000
vt 0.562500 0.875000
vt 0.562500 0.937500
vt 0.437500 0.937500
vt 0.437500 0.875000
vt 0.562500 0.875000
vt 0.562500 0.937500
vt 0.562500 0.875000
vt 0.562500 0.937500
vt 0.437500 0.937500
vt 0.437500 0.875000
vt 1.000000 0.875000
vt 1.000000 1.000000
vt 0.625000 1.000000
vt 0.625000 0.937500
vt 0.375000 0.937500
vt 0.875000 1.000000
vt 1.000000 1.000000
vt 0.000000 1.000000
vt 0.125000 1.000000
vt 0.125000 0.375000
vt 0.125000 0.437500
vt 0.875000 0.437500
vt 0.875000 0.375000
vt 0.562500 0.437500
vt 0.562500 0.625000
vt 0.625000 0.625000
vt 0.625000 0.437500
vt 0.375000 0.437500
vt 0.375000 0.625000
vt 0.437500 0.625000
vt 0.437500 0.437500
vt 0.625000 0.562500
vt 0.875000 0.625000
vt 0.875000 0.562500
vt 0.437500 0.562500
vt 0.562500 0.562500
vt 0.125000 0.562500
vt 0.125000 0.625000
vt 0.375000 0.562500
vt 0.875000 0.437500
vt 0.875000 0.562500
vt 0.937500 0.562500
vt 0.937500 0.437500
vt 0.062500 0.437500
vt 0.062500 0.562500
vt 0.125000 0.562500
vt 0.125000 0.437500
vt 0.875000 0.437500
vt 0.937500 0.437500
vt 0.062500 0.437500
vt 0.125000 0.437500
vt 0.875000 0.437500
vt 0.875000 0.562500
vt 0.937500 0.562500
vt 0.937500 0.437500
vt 0.062500 0.437500
vt 0.062500 0.562500
vt 0.125000 0.562500
vt 0.125000 0.437500
vt 0.875000 0.000000
vt 0.875000 0.375000
vt 1.000000 0.375000
vt 1.000000 0.000000
vt 0.000000 0.000000
vt 0.000000 0.375000
vt 0.125000 0.375000
vt 0.125000 0.000000
vt 0.937500 0.375000
vt 0.937500 1.000000
vt 1.000000 1.000000
vt 0.125000 0.437500
vt 0.875000 0.437500
vt 0.000000 1.000000
vt 0.062500 1.000000
vt 0.062500 0.375000
vt 0.812500 0.437500
vt 0.812500 0.625000
vt 0.875000 0.625000
vt 0.562500 0.437500
vt 0.562500 0.625000
vt 0.625000 0.625000
vt 0.625000 0.437500
vt 0.375000 0.437500
vt 0.375000 0.625000
vt 0.437500 0.625000
vt 0.437500 0.437500
vt 0.125000 0.625000
vt 0.187500 0.625000
vt 0.187500 0.437500
vt 0.625000 0.562500
vt 0.812500 0.562500
vt 0.437500 0.562500
vt 0.562500 0.562500
vt 0.187500 0.562500
vt 0.375000 0.562500
vt 0.875000 1.000000
vt 0.937500 0.625000
vt 0.062500 0.625000
vt 0.125000 1.000000
vt 1.000000 0.000000
vt 1.000000 0.375000
vt 0.875000 0.375000
vt 0.875000 0.000000
vt 0.125000 0.000000
vt 0.125000 0.375000
vt 0.000000 0.375000
vt 0.000000 0.000000
vt 1.000000 1.000000
vt 0.937500 1.000000
vt 0.937500 0.375000
vt 0.875000 0.437500
vt 0.125000 0.437500
vt 0.062500 0.375000
vt 0.062500 1.000000
vt 0.000000 1.000000
vt 0.625000 0.437500
vt 0.625000 0.625000
vt 0.562500 0.625000
vt 0.562500 0.437500
vt 0.437500 0.437500
vt 0.437500 0.625000
vt 0.375000 0.625000
vt 0.375000 0.437500
vt 0.875000 0.562500
vt 0.875000 0.625000
vt 0.625000 0.562500
vt 0.562500 0.562500
vt 0.437500 0.562500
vt 0.375000 0.562500
vt 0.125000 0.625000
vt 0.125000 0.562500
vt 0.937500 0.625000
vt 0.875000 1.000000
vt 0.125000 1.000000
vt 0.062500 0.625000
vt 0.937500 0.437500
vt 0.937500 0.562500
vt 0.875000 0.562500
vt 0.875000 0.437500
vt 0.125000 0.437500
vt 0.125000 0.562500
vt 0.062500 0.562500
vt 0.062500 0.437500
vt 0.937500 0.562500
vt 0.875000 0.562500
vt 0.125000 0.562500
vt 0.062500 0.562500
vt 0.937500 0.437500
vt 0.937500 0.562500
vt 0.875000 0.562500
vt 0.875000 0.437500
vt 0.125000 0.437500
vt 0.125000 0.562500
vt 0.062500 0.562500
vt 0.062500 0.437500
vt 0.875000 0.375000
vt 0.875000 0.437500
vt 0.125000 0.437500
vt 0.125000 0.375000
vt 0.875000 0.625000
vt 0.812500 0.625000
vt 0.812500 0.437500
vt 0.625000 0.437500
vt 0.625000 0.625000
vt 0.562500 0.625000
vt 0.562500 0.437500
vt 0.437500 0.437500
vt 0.437500 0.625000
vt 0.375000 0.625000
vt 0.375000 0.437500
vt 0.187500 0.437500
vt 0.187500 0.625000
vt 0.125000 0.625000
vt 0.812500 0.562500
vt 0.625000 0.562500
vt 0.562500 0.562500
vt 0.437500 0.562500
vt 0.375000 0.562500
vt 0.187500 0.562500
vt 1.000000 0.000000
vt 0.875000 0.000000
vt 0.125000 0.000000
vt 0.000000 0.000000
vt 0.437500 0.437500
vt 0.437500 0.562500
vt 0.562500 0.562500
vt 0.562500 0.437500
vt 0.562500 0.437500
vt 0.562500 0.562500
vt 0.437500 0.562500
vt 0.437500 0.437500
vt 0.000000 0.437500
vt 0.000000 0.562500
vt 1.000000 0.562500
vt 1.000000 0.437500
vt 1.000000 0.437500
vt 1.000000 0.562500
vt 0.000000 0.562500
vt 0.000000 0.437500
vt 0.437500 0.000000
vt 0.437500 1.000000
vt 0.562500 1.000000
vt 0.562500 0.000000
vt 0.562500 0.000000
vt 0.562500 1.000000
vt 0.437500 1.000000
vt 0.437500 0.000000
vn 0.0000 1.0000 0.0000
vn 0.0000 -1.0000 0.0000
vn -1.0000 0.0000 0.0000
vn 1.0000 0.0000 0.0000
vn 0.0000 0.0000 -1.0000
vn 0.0000 -0.0000 1.0000
g node_0_0_0.021_node_0_0_0.021_wool:grey.020
usemtl wool:grey.020
s 1
f 1/1/1 2/2/1 3/3/1 4/4/1
f 5/5/1 6/6/1 7/7/1 8/8/1
f 9/9/1 10/10/1 11/11/1 12/12/1
f 13/13/1 14/14/1 15/15/1 16/16/1
f 17/17/1 18/18/1 19/19/1 20/20/1
f 21/21/1 22/22/1 23/23/1 24/24/1
f 23/23/1 25/25/1 26/26/1 27/27/1
f 28/28/1 29/29/1 30/30/1 22/22/1
f 31/31/1 32/32/1 33/33/1 34/34/1
f 35/35/1 36/36/1 37/37/1 38/38/1
f 39/39/1 40/40/1 41/41/1 42/42/1
f 43/43/1 44/44/1 45/45/1 46/46/1
f 51/47/1 52/48/1 53/49/1 54/50/1
f 55/51/1 56/52/1 57/53/1 58/54/1
f 59/55/1 60/56/1 61/57/1 62/58/1
f 63/59/1 64/60/1 65/61/1 66/62/1
f 67/63/1 68/64/1 69/65/1 70/66/1
f 30/30/1 71/67/1 72/68/1 25/25/1
f 73/69/1 74/70/1 75/71/1 76/72/1
f 77/73/1 78/74/1 79/75/1 80/76/1
f 81/77/2 82/78/2 83/79/2 84/80/2
f 85/81/2 86/82/2 87/83/2 88/84/2
f 89/85/2 90/86/2 91/87/2 92/88/2
f 93/89/2 94/90/2 95/91/2 96/92/2
f 97/93/2 98/94/2 99/95/2 100/96/2
f 101/97/2 102/98/2 103/99/2 104/100/2
f 105/101/2 106/102/2 107/103/2 90/86/2
f 91/87/2 108/104/2 109/105/2 110/106/2
f 111/107/2 112/108/2 113/109/2 114/110/2
f 115/111/2 116/112/2 117/113/2 118/114/2
f 123/115/2 124/116/2 125/117/2 126/118/2
f 127/119/2 128/120/2 129/121/2 130/122/2
f 131/123/2 132/124/2 133/125/2 134/126/2
f 135/127/2 136/128/2 137/129/2 138/130/2
f 139/131/2 140/132/2 141/133/2 142/134/2
f 143/135/2 144/136/2 145/137/2 146/138/2
f 107/103/2 147/139/2 148/140/2 108/104/2
f 149/141/2 150/142/2 151/143/2 152/144/2
f 153/145/2 154/146/2 155/147/2 156/148/2
f 157/149/2 158/150/2 159/151/2 160/152/2
f 84/153/3 161/154/3 162/155/3 1/156/3
f 88/84/3 87/83/3 6/157/3 5/158/3
f 161/154/3 83/159/3 90/160/3 89/161/3
f 12/162/3 31/163/3 114/164/3 93/165/3
f 16/166/3 15/167/3 98/94/3 97/93/3
f 20/168/3 19/169/3 102/170/3 101/171/3
f 24/172/3 23/173/3 2/174/3 162/155/3
f 90/160/3 107/175/3 163/176/3 11/177/3
f 110/178/3 164/179/3 165/180/3 28/181/3
f 94/182/3 166/183/3 25/184/3 23/173/3
f 164/179/3 109/185/3 167/186/3 35/187/3
f 118/188/3 168/189/3 29/190/3 165/180/3
f 32/191/3 39/192/3 126/193/3 113/194/3
f 36/195/3 43/196/3 130/197/3 117/198/3
f 40/199/3 51/200/3 134/201/3 125/202/3
f 44/203/3 55/204/3 138/205/3 129/206/3
f 52/207/3 163/176/3 166/183/3 133/208/3
f 56/209/3 167/186/3 168/189/3 137/210/3
f 142/211/3 141/212/3 169/213/3 107/175/3
f 146/138/3 145/137/3 78/214/3 77/215/3
f 62/216/3 61/217/3 150/218/3 149/219/3
f 66/220/3 65/221/3 154/146/3 153/145/3
f 70/222/3 69/223/3 158/224/3 157/225/3
f 25/184/3 170/226/3 74/227/3 73/228/3
f 147/229/3 169/213/3 170/226/3 72/230/3
f 4/4/4 3/3/4 82/231/4 81/232/4
f 8/233/4 171/234/4 172/235/4 85/236/4
f 92/237/4 91/238/4 86/239/4 172/235/4
f 96/240/4 95/241/4 10/242/4 9/243/4
f 100/244/4 99/245/4 14/14/4 13/13/4
f 104/246/4 115/247/4 38/248/4 17/249/4
f 171/234/4 7/250/4 22/251/4 21/252/4
f 27/253/4 173/254/4 174/255/4 105/256/4
f 18/257/4 175/258/4 108/259/4 91/238/4
f 22/251/4 30/260/4 176/261/4 103/262/4
f 34/263/4 177/264/4 106/265/4 174/255/4
f 173/254/4 26/266/4 178/267/4 111/268/4
f 112/269/4 123/270/4 42/271/4 33/272/4
f 116/273/4 127/274/4 46/275/4 37/276/4
f 124/277/4 131/278/4 54/279/4 41/280/4
f 128/281/4 135/282/4 58/283/4 45/284/4
f 132/285/4 178/267/4 177/264/4 53/286/4
f 136/287/4 176/261/4 175/258/4 57/288/4
f 76/72/4 75/71/4 140/289/4 139/290/4
f 108/259/4 179/291/4 144/292/4 143/293/4
f 152/294/4 151/295/4 60/296/4 59/297/4
f 156/298/4 155/299/4 64/60/4 63/59/4
f 160/300/4 159/301/4 68/302/4 67/303/4
f 80/304/4 79/305/4 180/306/4 30/260/4
f 71/307/4 180/306/4 179/291/4 148/308/4
f 84/80/5 1/309/5 4/310/5 81/77/5
f 88/84/5 5/311/5 8/312/5 85/81/5
f 92/313/5 17/314/5 12/315/5 89/316/5
f 16/317/5 181/318/5 182/319/5 9/320/5
f 20/321/5 183/322/5 184/323/5 13/324/5
f 96/325/5 182/319/5 24/326/5 93/327/5
f 100/328/5 184/323/5 181/318/5 97/329/5
f 104/330/5 21/331/5 183/322/5 101/332/5
f 32/333/5 113/334/5 112/335/5 33/336/5
f 36/337/5 117/338/5 116/339/5 37/340/5
f 40/341/5 125/117/5 124/116/5 41/342/5
f 44/343/5 129/121/5 128/120/5 45/344/5
f 52/345/5 133/346/5 132/347/5 53/348/5
f 56/349/5 137/350/5 136/351/5 57/352/5
f 142/353/5 107/354/5 185/355/5 139/356/5
f 146/357/5 186/358/5 108/359/5 143/360/5
f 106/361/5 187/362/5 76/363/5 185/355/5
f 108/359/5 175/364/5 163/365/5 107/354/5
f 186/358/5 77/366/5 188/367/5 109/368/5
f 62/369/5 189/370/5 25/371/5 163/365/5
f 66/372/5 190/373/5 191/374/5 59/375/5
f 70/376/5 192/377/5 193/378/5 63/379/5
f 175/364/5 30/380/5 194/381/5 67/382/5
f 152/383/5 191/374/5 189/370/5 149/384/5
f 156/385/5 193/378/5 190/373/5 153/386/5
f 160/387/5 194/381/5 192/377/5 157/388/5
f 25/371/5 73/389/5 187/362/5 26/390/5
f 29/391/5 188/367/5 80/392/5 30/380/5
f 82/393/6 195/394/6 90/395/6 83/396/6
f 86/397/6 91/398/6 196/399/6 87/400/6
f 195/394/6 3/401/6 197/402/6 105/403/6
f 90/395/6 11/404/6 18/405/6 91/398/6
f 110/406/6 198/407/6 6/408/6 196/399/6
f 10/409/6 199/410/6 200/411/6 15/412/6
f 14/413/6 201/414/6 202/415/6 19/416/6
f 94/417/6 23/418/6 199/410/6 95/419/6
f 98/420/6 200/411/6 201/414/6 99/421/6
f 102/422/6 202/415/6 22/423/6 103/424/6
f 27/425/6 197/402/6 2/426/6 23/418/6
f 22/423/6 7/427/6 198/407/6 28/428/6
f 34/429/6 111/430/6 114/431/6 31/432/6
f 38/433/6 115/434/6 118/435/6 35/436/6
f 42/42/6 123/437/6 126/438/6 39/39/6
f 46/46/6 127/439/6 130/440/6 43/43/6
f 54/441/6 131/442/6 134/443/6 51/444/6
f 58/445/6 135/446/6 138/447/6 55/448/6
f 147/449/6 203/450/6 204/451/6 148/452/6
f 203/450/6 72/453/6 205/454/6 61/455/6
f 60/456/6 206/457/6 207/458/6 65/459/6
f 64/460/6 208/461/6 209/462/6 69/463/6
f 68/464/6 210/465/6 71/466/6 204/451/6
f 150/467/6 205/454/6 206/457/6 151/468/6
f 154/469/6 207/458/6 208/461/6 155/470/6
f 158/471/6 209/462/6 210/465/6 159/472/6
f 140/473/6 75/71/6 74/70/6 141/474/6
f 144/475/6 79/75/6 78/74/6 145/476/6
g node_0_0_0.021_node_0_0_0.021_wool:red.009
usemtl wool:red.009
f 47/477/1 48/478/1 49/479/1 50/480/1
f 119/481/2 120/482/2 121/483/2 122/484/2
f 122/485/3 121/486/3 48/487/3 47/488/3
f 50/489/4 49/490/4 120/491/4 119/492/4
f 122/493/5 47/494/5 50/495/5 119/496/5
f 120/497/6 49/498/6 48/499/6 121/500/6
