# Blender v3.1.2 OBJ File: ''
# www.blender.org
mtllib power_generators_ce_starter_manual.mtl
o node_0_0_0.001
v -0.187500 -0.187500 -0.062500
v -0.187500 -0.187500 -0.000000
v 0.062500 -0.187500 -0.000000
v 0.062500 -0.187500 -0.062500
v -0.250000 -0.125000 -0.062500
v -0.250000 -0.125000 -0.000000
v -0.187500 -0.125000 -0.000000
v -0.187500 -0.125000 -0.062500
v 0.000000 -0.187500 -0.000000
v 0.000000 -0.187500 0.062500
v 0.062500 -0.187500 0.062500
v 0.062500 -0.250000 -0.062500
v 0.062500 -0.250000 -0.000000
v -0.250000 -0.250000 -0.000000
v -0.250000 -0.250000 -0.062500
v 0.062500 -0.250000 0.062500
v 0.000000 -0.250000 0.062500
v 0.000000 -0.250000 -0.000000
v -0.250000 -0.187500 -0.062500
v -0.250000 -0.187500 -0.000000
v -0.187500 -0.062500 0.062500
v -0.187500 -0.062500 0.375000
v 0.187500 -0.062500 0.375000
v 0.187500 -0.062500 0.062500
v 0.187500 -0.500000 0.062500
v 0.187500 -0.500000 0.375000
v -0.187500 -0.500000 0.375000
v -0.187500 -0.500000 0.062500
v -0.187500 -0.250000 0.062500
v 0.187500 -0.250000 0.062500
v 0.062500 -0.062500 0.062500
v 0.000000 -0.062500 0.062500
v 0.187500 -0.250000 0.375000
v -0.187500 -0.250000 0.375000
v 0.187500 -0.125000 0.375000
v -0.187500 -0.125000 0.375000
v -0.437500 -0.125000 0.250000
v -0.437500 -0.125000 0.437500
v -0.312500 -0.125000 0.437500
v -0.312500 -0.125000 0.250000
v 0.312500 -0.062500 0.250000
v 0.312500 -0.062500 0.375000
v 0.437500 -0.062500 0.375000
v 0.437500 -0.062500 0.250000
v -0.312500 -0.125000 0.375000
v 0.437500 -0.125000 0.437500
v 0.437500 -0.125000 0.375000
v 0.437500 -0.500000 0.250000
v 0.437500 -0.500000 0.375000
v 0.312500 -0.500000 0.375000
v 0.312500 -0.500000 0.250000
v -0.312500 -0.500000 0.250000
v -0.312500 -0.500000 0.375000
v -0.437500 -0.500000 0.375000
v -0.437500 -0.500000 0.250000
v 0.437500 -0.250000 0.375000
v 0.437500 -0.250000 0.437500
v -0.437500 -0.250000 0.437500
v -0.437500 -0.250000 0.375000
v -0.437500 -0.125000 0.375000
v 0.312500 -0.125000 0.375000
v 0.312500 -0.250000 0.375000
v -0.312500 -0.250000 0.375000
vt 0.062500 0.750000
vt 0.062500 0.937500
vt 0.187500 0.937500
vt 0.187500 0.750000
vt 0.812500 0.750000
vt 0.812500 0.875000
vt 0.937500 0.875000
vt 0.937500 0.750000
vt 0.187500 0.875000
vt 0.937500 0.937500
vt 0.937500 0.875000
vt 0.937500 0.750000
vt 0.937500 0.875000
vt 0.812500 0.875000
vt 0.812500 0.750000
vt 0.187500 0.750000
vt 0.187500 0.875000
vt 0.062500 0.875000
vt 0.062500 0.750000
vt 0.937500 0.875000
vt 0.937500 0.937500
vt 0.062500 0.937500
vt 0.062500 0.875000
vt 0.000000 0.750000
vt 0.000000 0.875000
vt 0.437500 0.875000
vt 0.437500 0.750000
vt 0.000000 0.750000
vt 0.000000 0.875000
vt 0.375000 0.875000
vt 0.375000 0.750000
vt 0.250000 0.875000
vt 0.250000 0.937500
vt 0.375000 0.937500
vt 0.437500 0.750000
vt 0.437500 0.875000
vt 0.000000 0.875000
vt 0.000000 0.750000
vt 0.375000 0.750000
vt 0.375000 0.875000
vt 0.000000 0.875000
vt 0.000000 0.750000
vt 0.375000 0.875000
vt 0.375000 0.937500
vt 0.250000 0.937500
vt 0.250000 0.875000
vt 0.812500 0.000000
vt 0.812500 0.437500
vt 0.937500 0.437500
vt 0.937500 0.000000
vt 0.062500 0.000000
vt 0.062500 0.375000
vt 0.187500 0.375000
vt 0.187500 0.000000
vt 0.687500 0.250000
vt 0.687500 0.375000
vt 0.812500 0.375000
vt 0.812500 0.250000
vt 0.187500 0.250000
vt 0.187500 0.375000
vt 0.312500 0.375000
vt 0.312500 0.250000
vt 0.937500 0.000000
vt 0.937500 0.250000
vt 0.812500 0.000000
vt 0.187500 0.000000
vt 0.062500 0.250000
vt 0.062500 0.000000
vt 0.937500 0.375000
vt 0.937500 0.437500
vt 0.812500 0.437500
vt 0.937500 0.250000
vt 0.937500 0.375000
vt 0.062500 0.375000
vt 0.062500 0.250000
vt 0.312500 0.562500
vt 0.312500 0.875000
vt 0.687500 0.875000
vt 0.687500 0.562500
vt 0.687500 0.562500
vt 0.687500 0.875000
vt 0.312500 0.875000
vt 0.312500 0.562500
vt 0.000000 0.562500
vt 0.000000 0.875000
vt 0.437500 0.875000
vt 0.437500 0.562500
vt 0.437500 0.562500
vt 0.437500 0.875000
vt 0.000000 0.875000
vt 0.000000 0.562500
vt 0.312500 0.000000
vt 0.312500 0.250000
vt 0.687500 0.250000
vt 0.687500 0.000000
vt 0.562500 0.250000
vt 0.562500 0.437500
vt 0.687500 0.437500
vt 0.312500 0.437500
vt 0.500000 0.437500
vt 0.500000 0.250000
vt 0.500000 0.312500
vt 0.562500 0.312500
vt 0.687500 0.000000
vt 0.312500 0.000000
vt 0.687500 0.437500
vt 0.312500 0.437500
vt 0.062500 0.875000
vt 0.062500 0.937500
vt 0.312500 0.937500
vt 0.312500 0.875000
vt 0.000000 0.875000
vt 0.000000 0.937500
vt 0.062500 0.937500
vt 0.062500 0.875000
vt 0.250000 0.937500
vt 0.250000 1.000000
vt 0.312500 1.000000
vt 0.312500 0.875000
vt 0.312500 0.937500
vt 0.000000 0.937500
vt 0.000000 0.875000
vt 0.312500 1.000000
vt 0.250000 1.000000
vt 0.250000 0.937500
vt 0.125000 0.937500
vt 0.125000 0.875000
vt 0.000000 0.937500
vt 0.000000 1.000000
vt 0.062500 1.000000
vt 0.062500 0.937500
vt 0.062500 0.875000
vt 0.062500 1.000000
vt 0.000000 1.000000
vt 0.000000 0.875000
vt 0.125000 0.875000
vt 0.125000 0.937500
vt 0.000000 0.750000
vt 0.000000 0.812500
vt 0.312500 0.812500
vt 0.312500 0.750000
vt 0.062500 0.812500
vt 0.250000 0.750000
vt 0.250000 0.812500
vt 0.000000 0.812500
vt 0.000000 0.750000
vt 0.062500 0.812500
vt 0.062500 0.875000
vt 0.000000 0.875000
vn 0.0000 1.0000 0.0000
vn 0.0000 -1.0000 0.0000
vn -1.0000 0.0000 0.0000
vn 1.0000 0.0000 0.0000
vn 0.0000 0.0000 -1.0000
vn 0.0000 -0.0000 1.0000
g node_0_0_0.001_node_0_0_0.001_wool:grey.001
usemtl wool:grey.001
s 1
f 37/1/1 38/2/1 39/3/1 40/4/1
f 41/5/1 42/6/1 43/7/1 44/8/1
f 45/9/1 39/3/1 46/10/1 47/11/1
f 48/12/2 49/13/2 50/14/2 51/15/2
f 52/16/2 53/17/2 54/18/2 55/19/2
f 56/20/2 57/21/2 58/22/2 59/23/2
f 51/24/3 50/25/3 42/26/3 41/27/3
f 55/28/3 54/29/3 60/30/3 37/31/3
f 59/32/3 58/33/3 38/34/3 60/30/3
f 44/35/4 43/36/4 49/37/4 48/38/4
f 40/39/4 45/40/4 53/41/4 52/42/4
f 47/43/4 46/44/4 57/45/4 56/46/4
f 51/47/5 41/48/5 44/49/5 48/50/5
f 55/51/5 37/52/5 40/53/5 52/54/5
f 33/55/5 35/56/5 61/57/5 62/58/5
f 63/59/5 45/60/5 36/61/5 34/62/5
f 49/63/6 56/64/6 62/58/6 50/65/6
f 53/66/6 63/59/6 59/67/6 54/68/6
f 47/69/6 43/70/6 42/71/6 61/57/6
f 57/72/6 46/73/6 38/74/6 58/75/6
g node_0_0_0.001_node_0_0_0.001_default:stone.002
usemtl default:stone.002
f 21/76/1 22/77/1 23/78/1 24/79/1
f 25/80/2 26/81/2 27/82/2 28/83/2
f 28/84/3 27/85/3 22/86/3 21/87/3
f 24/88/4 23/89/4 26/90/4 25/91/4
f 28/92/5 29/93/5 30/94/5 25/95/5
f 16/96/5 31/97/5 24/98/5 30/94/5
f 29/93/5 21/99/5 32/100/5 17/101/5
f 10/102/5 32/100/5 31/97/5 11/103/5
f 26/104/6 33/55/6 34/62/6 27/105/6
f 35/56/6 23/106/6 22/107/6 36/61/6
g node_0_0_0.001_node_0_0_0.001_default:steelblock.001
usemtl default:steelblock.001
f 1/108/1 2/109/1 3/110/1 4/111/1
f 5/112/1 6/113/1 7/114/1 8/115/1
f 9/116/1 10/117/1 11/118/1 3/110/1
f 12/119/2 13/120/2 14/121/2 15/122/2
f 13/120/2 16/123/2 17/124/2 18/125/2
f 15/122/3 14/121/3 6/126/3 5/127/3
f 18/128/3 17/129/3 10/130/3 9/131/3
f 4/132/4 11/133/4 16/134/4 12/135/4
f 8/136/4 7/137/4 2/109/4 1/108/4
f 15/138/5 19/139/5 4/140/5 12/141/5
f 19/139/5 5/112/5 8/115/5 1/142/5
f 18/143/6 9/144/6 20/145/6 14/146/6
f 2/147/6 7/148/6 6/149/6 20/145/6
